<svg width="16" height="16" viewBox="0 0 16 16" fill="none" xmlns="http://www.w3.org/2000/svg">
<path d="M15.5896 7.45802L15.0222 6.61248C14.976 6.51668 14.9536 6.41111 14.957 6.30479L15.0222 5.28079C15.04 4.9978 14.974 4.71585 14.8323 4.47021C14.6907 4.22458 14.4797 4.02619 14.2259 3.89987L13.3163 3.44448C13.2241 3.40061 13.1498 3.32628 13.1059 3.23402L12.6345 2.29125C12.5068 2.03883 12.3082 1.82909 12.0632 1.68768C11.8182 1.54626 11.5373 1.47928 11.2548 1.49494L10.2296 1.56017C10.1265 1.56573 10.0244 1.53718 9.93912 1.47894L9.06035 0.910327C8.82242 0.75147 8.54275 0.666687 8.25666 0.666687C7.97057 0.666687 7.6909 0.75147 7.45297 0.910327L6.61112 1.47894C6.50879 1.52389 6.39794 1.54614 6.2862 1.54417L5.2622 1.47894C4.97658 1.46959 4.69411 1.54082 4.44707 1.68447C4.20003 1.82812 3.99842 2.0384 3.86527 2.29125L3.40989 3.20202C3.3661 3.29362 3.29226 3.36746 3.20066 3.41125L2.28989 3.86663C1.7705 4.12756 1.46281 4.67894 1.49481 5.24756L1.56004 6.27156C1.56004 6.37002 1.54281 6.48325 1.47881 6.56448L0.910196 7.44079C0.585273 7.92817 0.585273 8.56202 0.910196 9.0494L1.47881 9.89494C1.52329 9.99738 1.54513 10.1082 1.54281 10.2199L1.47881 11.2426C1.46281 11.8285 1.7705 12.3639 2.29112 12.6408L3.19943 13.0962C3.29789 13.1442 3.36189 13.2254 3.41112 13.3054L3.8665 14.2162C4.12497 14.7356 4.67758 15.0445 5.24497 15.0125L6.26897 14.9472C6.36743 14.9472 6.48066 14.9632 6.56066 15.0285L7.4062 15.5811C7.64866 15.7436 7.92558 15.8248 8.20127 15.8248C8.47697 15.8248 8.75389 15.7436 8.99758 15.5811L9.84189 15.0125C9.93071 14.9612 10.0311 14.9333 10.1336 14.9312L11.1564 14.9965C11.4394 15.0145 11.7214 14.9485 11.967 14.8068C12.2127 14.6652 12.4111 14.4541 12.5373 14.2002L12.9927 13.2894C13.0362 13.1973 13.1101 13.123 13.2019 13.0789L14.1127 12.6236C14.632 12.3651 14.941 11.8113 14.9077 11.2426L14.8757 10.2359C14.8757 10.1374 14.8917 10.0242 14.957 9.94294L15.5084 9.0814C15.9145 8.56202 15.9145 7.92817 15.5896 7.45679V7.45802ZM5.5305 4.6851C6.3785 4.6851 7.06897 5.37556 7.06897 6.22356C7.06897 7.07156 6.3785 7.76202 5.5305 7.76202C4.6665 7.76202 3.99204 7.08633 3.99204 6.22356C3.99204 5.37556 4.6825 4.6851 5.5305 4.6851ZM5.65727 11.6685C5.57118 11.7541 5.45501 11.8027 5.33358 11.8039C5.23143 11.8039 5.13543 11.522 5.03327 11.4371C4.98904 11.3974 4.95366 11.3488 4.92944 11.2945C4.90522 11.2402 4.8927 11.1815 4.8927 11.122C4.8927 11.0626 4.90522 11.0038 4.92944 10.9495C4.95366 10.8952 4.98904 10.8467 5.03327 10.8069L10.7859 5.05433C10.8256 5.01009 10.8742 4.97471 10.9285 4.95049C10.9827 4.92627 11.0415 4.91375 11.101 4.91375C11.1604 4.91375 11.2192 4.92627 11.2735 4.95049C11.3278 4.97471 11.3763 5.01009 11.416 5.05433C11.5859 5.2414 11.5637 5.74602 11.3767 5.91586L5.65727 11.6685ZM10.4536 12.5116C9.60558 12.5116 8.91512 11.8211 8.91512 10.9731C8.91512 10.1251 9.60558 9.43463 10.4536 9.43463C11.3164 9.43463 11.992 10.1103 11.992 10.9731C11.992 11.8211 11.3016 12.5116 10.4536 12.5116Z" fill="#51BA64"/>
</svg>
