<svg width="32" height="32" viewBox="0 0 32 32" fill="none" xmlns="http://www.w3.org/2000/svg">
<circle cx="16" cy="16" r="16" fill="#AC8E48"/>
<path d="M17.1067 13.1667H17.8974L17.5584 12.4523C17.1058 11.4986 16.1345 10.8333 15 10.8333H12.5V10.5H19.5V10.8333H17.8267H16.7639L17.4415 11.6521C17.7174 11.9855 17.9247 12.3768 18.0457 12.8032L18.1488 13.1667H18.5267H19.5V13.5H18.6533H18.196L18.1553 13.9555C18.0115 15.5661 16.6526 16.8333 15 16.8333H14.5133H13.339L14.1529 17.6799L17.8257 21.5H17.3662L13.1667 17.132V16.5H15C16.4251 16.5 17.6073 15.4473 17.8018 14.0699L17.8822 13.5H17.3067H12.5V13.1667H17.1067Z" fill="#333333" stroke="white"/>
</svg>
