<svg width="24" height="18" viewBox="0 0 24 18" fill="none" xmlns="http://www.w3.org/2000/svg">
<path d="M16.5 5.25C16.5 5.05109 16.579 4.86032 16.7197 4.71967C16.8603 4.57902 17.0511 4.5 17.25 4.5H20.25C20.4489 4.5 20.6397 4.57902 20.7803 4.71967C20.921 4.86032 21 5.05109 21 5.25V6.75C21 6.94891 20.921 7.13968 20.7803 7.28033C20.6397 7.42098 20.4489 7.5 20.25 7.5H17.25C17.0511 7.5 16.8603 7.42098 16.7197 7.28033C16.579 7.13968 16.5 6.94891 16.5 6.75V5.25Z" fill="#AC8E48"/>
<path d="M3 0C2.20435 0 1.44129 0.31607 0.87868 0.87868C0.316071 1.44129 0 2.20435 0 3L0 15C0 15.7956 0.316071 16.5587 0.87868 17.1213C1.44129 17.6839 2.20435 18 3 18H21C21.7956 18 22.5587 17.6839 23.1213 17.1213C23.6839 16.5587 24 15.7956 24 15V3C24 2.20435 23.6839 1.44129 23.1213 0.87868C22.5587 0.31607 21.7956 0 21 0H3ZM22.5 3V10.5H1.5V3C1.5 2.60218 1.65804 2.22064 1.93934 1.93934C2.22064 1.65804 2.60218 1.5 3 1.5H21C21.3978 1.5 21.7794 1.65804 22.0607 1.93934C22.342 2.22064 22.5 2.60218 22.5 3ZM21 16.5H3C2.60218 16.5 2.22064 16.342 1.93934 16.0607C1.65804 15.7794 1.5 15.3978 1.5 15V13.5H22.5V15C22.5 15.3978 22.342 15.7794 22.0607 16.0607C21.7794 16.342 21.3978 16.5 21 16.5Z" fill="#AC8E48"/>
</svg>
