<svg width="32" height="32" viewBox="0 0 32 32" fill="none" xmlns="http://www.w3.org/2000/svg">
<circle cx="16" cy="16" r="16" fill="#AC8E48"/>
<path d="M20.4375 16.1348V16.1348C20.4375 16.1035 20.4358 16.0743 20.4343 16.0512C20.434 16.0463 20.4337 16.0417 20.4334 16.0374C20.4324 16.0227 20.4317 16.0109 20.4312 15.9994C20.4316 15.9875 20.4325 15.9751 20.4335 15.9589C20.4337 15.9558 20.434 15.9525 20.4342 15.9491C20.4357 15.9263 20.4375 15.8968 20.4375 15.8653C20.4375 13.5842 18.5267 11.75 16.1875 11.75C13.8486 11.75 11.9372 13.5841 11.9372 15.8653C11.9372 15.8985 11.9395 15.9293 11.9413 15.9522C11.9416 15.9557 11.9419 15.959 11.9421 15.9622C11.9433 15.9778 11.9442 15.9893 11.9448 16C11.9442 16.0106 11.9433 16.022 11.9421 16.0376C11.9419 16.0408 11.9416 16.0441 11.9413 16.0477C11.9395 16.0706 11.9372 16.1014 11.9372 16.1348C11.9372 18.4159 13.8484 20.25 16.1875 20.25C18.5267 20.25 20.4372 18.4158 20.4375 16.1348ZM10.9375 16C10.9375 13.1006 13.2883 10.75 16.1877 10.75C19.0869 10.75 21.4377 13.1006 21.4377 16C21.4377 18.8992 19.0869 21.25 16.1877 21.25C13.2886 21.25 10.9375 18.8992 10.9375 16Z" stroke="white" stroke-width="0.5"/>
<mask id="path-3-inside-1_986_4875" fill="white">
<path d="M8.87036 9.85527C8.93036 9.62002 9.04911 9.85252 9.04911 9.85252C9.04911 9.85252 9.09061 12.2875 9.36061 12.314C9.63061 12.3405 9.42261 9.80852 9.74211 9.76002C10.0391 9.71277 9.86961 12.3543 10.1401 12.3275C10.4096 12.299 10.4551 9.86502 10.4551 9.86502C10.4551 9.86502 10.5751 9.63277 10.6344 9.86627C11.3664 12.7438 10.7741 13.92 10.7741 13.92C10.7741 13.92 10.6741 14.1673 10.4366 14.1685C10.4144 14.1673 10.4311 21.0025 10.4296 21.9215C10.4301 22.3683 9.05461 22.3545 9.05536 21.9098C9.05636 20.9908 9.08311 14.1563 9.06161 14.1568C8.82336 14.1568 8.72361 13.9098 8.72361 13.9098C8.72361 13.9098 8.13361 12.7343 8.87036 9.85527Z"/>
</mask>
<path d="M9.04911 9.85252L9.54903 9.844L9.54706 9.72822L9.49439 9.62509L9.04911 9.85252ZM9.74211 9.76002L9.81715 10.2544L9.82066 10.2538L9.74211 9.76002ZM10.1401 12.3275L10.1893 12.8251L10.1927 12.8248L10.1401 12.3275ZM10.4551 9.86502L10.0109 9.63551L9.95737 9.7391L9.95519 9.85568L10.4551 9.86502ZM10.6344 9.86627L10.1497 9.98925L10.1498 9.98954L10.6344 9.86627ZM10.7741 13.92L10.3275 13.6952L10.3183 13.7135L10.3106 13.7326L10.7741 13.92ZM10.4366 14.1685L10.4086 14.6677L10.4239 14.6686L10.4392 14.6685L10.4366 14.1685ZM10.4296 21.9215L9.92961 21.9207L9.92961 21.9221L10.4296 21.9215ZM9.05536 21.9098L9.55536 21.9106L9.55536 21.9103L9.05536 21.9098ZM9.06161 14.1568V14.6569L9.07323 14.6566L9.06161 14.1568ZM8.72361 13.9098L9.18723 13.7225L9.17961 13.7037L9.17048 13.6855L8.72361 13.9098ZM9.35485 9.97884C9.35591 9.97468 9.35105 9.99682 9.33219 10.0307C9.31405 10.0633 9.26748 10.1345 9.17337 10.1887C9.06726 10.2499 8.94919 10.2617 8.84769 10.2397C8.75957 10.2207 8.70166 10.1807 8.67662 10.1614C8.64917 10.1402 8.63268 10.1214 8.62637 10.114C8.61904 10.1053 8.61489 10.0992 8.61348 10.0971C8.61179 10.0945 8.6106 10.0925 8.60958 10.0907C8.60898 10.0897 8.60825 10.0884 8.60734 10.0867C8.60688 10.0858 8.60637 10.0849 8.60578 10.0837C8.60549 10.0832 8.60519 10.0826 8.60486 10.082C8.6047 10.0817 8.60453 10.0813 8.60436 10.081C8.60427 10.0808 8.60418 10.0807 8.60409 10.0805C8.60405 10.0804 8.60398 10.0803 8.60396 10.0802C8.60389 10.0801 8.60382 10.08 9.04911 9.85252C9.49439 9.62509 9.49432 9.62496 9.49425 9.62482C9.49423 9.62478 9.49416 9.62464 9.49411 9.62455C9.49401 9.62436 9.49391 9.62417 9.49381 9.62397C9.49361 9.62358 9.4934 9.62317 9.49318 9.62275C9.49274 9.62189 9.49226 9.62097 9.49174 9.61998C9.49071 9.61801 9.48952 9.61575 9.48817 9.61325C9.4855 9.60827 9.48216 9.60219 9.4782 9.59526C9.47045 9.58167 9.45951 9.56335 9.44575 9.54269C9.42466 9.51102 9.3718 9.43478 9.28784 9.36995C9.21093 9.31055 8.95883 9.15811 8.67383 9.32245C8.46416 9.44336 8.40484 9.6573 8.38587 9.73171L9.35485 9.97884ZM9.04911 9.85252C8.54918 9.86104 8.54918 9.86108 8.54918 9.86113C8.54918 9.86115 8.54918 9.86121 8.54918 9.86126C8.54919 9.86137 8.54919 9.86152 8.54919 9.8617C8.5492 9.86207 8.54921 9.86259 8.54922 9.86325C8.54924 9.86457 8.54928 9.86646 8.54932 9.86892C8.54942 9.87384 8.54955 9.88099 8.54975 9.89024C8.55013 9.90873 8.55072 9.93561 8.55157 9.96967C8.55327 10.0378 8.556 10.1348 8.56012 10.2511C8.56836 10.4833 8.58225 10.795 8.6049 11.1093C8.62728 11.4197 8.65925 11.7481 8.70597 12.007C8.72867 12.1328 8.75919 12.2678 8.80392 12.3824C8.82562 12.438 8.86107 12.5165 8.91925 12.5907C8.97367 12.66 9.10054 12.7909 9.31177 12.8116L9.40945 11.8164C9.58693 11.8338 9.68183 11.9426 9.70598 11.9734C9.73389 12.0089 9.74076 12.0324 9.73549 12.0189C9.72626 11.9952 9.70925 11.9357 9.69008 11.8295C9.65309 11.6244 9.62406 11.339 9.60231 11.0374C9.58084 10.7396 9.56748 10.4409 9.5595 10.2157C9.55551 10.1033 9.55289 10.0099 9.55126 9.94474C9.55045 9.91217 9.54989 9.8867 9.54953 9.86951C9.54935 9.86092 9.54923 9.8544 9.54915 9.8501C9.54911 9.84795 9.54908 9.84635 9.54906 9.84533C9.54905 9.84482 9.54904 9.84445 9.54904 9.84423C9.54904 9.84412 9.54903 9.84404 9.54903 9.84401C9.54903 9.84399 9.54903 9.84399 9.54903 9.84398C9.54903 9.84399 9.54903 9.844 9.04911 9.85252ZM9.31177 12.8116C9.55826 12.8358 9.72379 12.6953 9.7996 12.5984C9.8682 12.5108 9.90176 12.4173 9.91885 12.3624C9.95543 12.2448 9.97439 12.1058 9.98671 11.9828C10.0122 11.7277 10.022 11.3911 10.0325 11.0822C10.0435 10.7591 10.0555 10.4617 10.082 10.2436C10.0957 10.1312 10.1099 10.0705 10.1178 10.0475C10.1221 10.0351 10.1155 10.061 10.0864 10.0993C10.0563 10.1389 9.97058 10.2311 9.81715 10.2544L9.66707 9.26569C9.47369 9.29504 9.35215 9.41264 9.28987 9.4947C9.22861 9.57541 9.19343 9.66061 9.17229 9.72201C9.12935 9.84672 9.1053 9.9916 9.08933 10.1229C9.05656 10.3924 9.04375 10.7355 9.03308 11.0481C9.02194 11.3749 9.01307 11.6694 8.99168 11.8832C8.98053 11.9945 8.96895 12.0494 8.96398 12.0654C8.96029 12.0772 8.97032 12.0355 9.01215 11.982C9.06119 11.9194 9.1967 11.7955 9.40945 11.8164L9.31177 12.8116ZM9.82066 10.2538C9.62511 10.2849 9.48366 10.1853 9.42166 10.1167C9.39416 10.0863 9.379 10.06 9.37243 10.0476C9.36874 10.0407 9.36631 10.0353 9.36494 10.0321C9.36354 10.0289 9.36289 10.0271 9.36286 10.027C9.36281 10.0269 9.3632 10.028 9.36395 10.0304C9.3647 10.0329 9.3657 10.0364 9.36691 10.041C9.36938 10.0504 9.37232 10.0631 9.37558 10.0794C9.38217 10.1125 9.38888 10.1549 9.39542 10.2071C9.4225 10.4235 9.43697 10.7263 9.45152 11.058C9.46547 11.3759 9.47953 11.7222 9.50858 11.9858C9.52261 12.1132 9.54332 12.2543 9.58046 12.3726C9.59777 12.4278 9.63107 12.5201 9.69744 12.6067C9.7682 12.699 9.93397 12.8503 10.1893 12.8251L10.0909 11.83C10.3124 11.808 10.4478 11.9418 10.4912 11.9985C10.5302 12.0493 10.5391 12.0876 10.5346 12.0732C10.5281 12.0524 10.5153 11.992 10.5026 11.8762C10.478 11.6535 10.4652 11.3474 10.4506 11.0142C10.4366 10.6948 10.4208 10.3477 10.3877 10.0829C10.3718 9.95588 10.3478 9.81096 10.3039 9.68875C10.2833 9.63128 10.2429 9.53396 10.1634 9.44604C10.0712 9.34397 9.89623 9.22922 9.66355 9.26623L9.82066 10.2538ZM10.1927 12.8248C10.4029 12.8025 10.5286 12.6715 10.5822 12.6028C10.6399 12.529 10.6751 12.4509 10.6968 12.3953C10.7415 12.2808 10.7721 12.1459 10.795 12.0201C10.842 11.761 10.8745 11.4327 10.8973 11.1223C10.9205 10.8081 10.9348 10.4964 10.9434 10.2643C10.9478 10.148 10.9506 10.051 10.9524 9.98295C10.9534 9.9489 10.954 9.92204 10.9544 9.90355C10.9546 9.89431 10.9548 9.88715 10.9549 9.88224C10.9549 9.87979 10.955 9.87789 10.955 9.87657C10.955 9.87591 10.955 9.8754 10.955 9.87503C10.955 9.87485 10.955 9.8747 10.955 9.87459C10.955 9.87453 10.955 9.87448 10.955 9.87445C10.955 9.8744 10.955 9.87437 10.4551 9.86502C9.95519 9.85568 9.95519 9.85566 9.95519 9.85565C9.95519 9.85566 9.95519 9.85566 9.95519 9.85568C9.95519 9.85572 9.95519 9.85579 9.95519 9.8559C9.95519 9.85613 9.95518 9.85649 9.95517 9.857C9.95515 9.85803 9.95512 9.85962 9.95507 9.86177C9.95498 9.86607 9.95485 9.87259 9.95465 9.88118C9.95427 9.89836 9.95367 9.92382 9.9528 9.95638C9.95107 10.0215 9.94829 10.1149 9.94413 10.2273C9.93578 10.4525 9.92195 10.7511 9.90002 11.0489C9.87781 11.3505 9.84836 11.636 9.81107 11.8414C9.79176 11.9477 9.77463 12.0077 9.76523 12.0318C9.75988 12.0455 9.76654 12.0226 9.79391 11.9875C9.81728 11.9576 9.91099 11.849 10.0875 11.8303L10.1927 12.8248ZM10.4551 9.86502C10.8993 10.0945 10.8992 10.0947 10.8992 10.0948C10.8992 10.0948 10.8991 10.095 10.899 10.0951C10.899 10.0952 10.8989 10.0954 10.8988 10.0956C10.8986 10.0959 10.8984 10.0962 10.8983 10.0965C10.898 10.0972 10.8976 10.0977 10.8974 10.0983C10.8968 10.0994 10.8963 10.1004 10.8958 10.1012C10.8949 10.1029 10.8942 10.1042 10.8936 10.1052C10.8926 10.1069 10.8915 10.1088 10.8898 10.1112C10.8885 10.1132 10.8844 10.1191 10.8773 10.1275C10.8711 10.1348 10.8549 10.1531 10.828 10.1739C10.8036 10.1928 10.7467 10.2321 10.6601 10.2513C10.5606 10.2735 10.4427 10.2635 10.3354 10.2029C10.2398 10.1489 10.1921 10.077 10.1733 10.0434C10.1539 10.0086 10.1488 9.98563 10.1497 9.98925L11.119 9.7433C11.1001 9.66889 11.0404 9.45261 10.8273 9.33224C10.5418 9.17096 10.2916 9.3247 10.217 9.38229C10.1337 9.44654 10.081 9.52192 10.0597 9.55357C10.0459 9.57411 10.035 9.59232 10.0272 9.60584C10.0232 9.61274 10.0198 9.61879 10.0171 9.62374C10.0158 9.62623 10.0146 9.62847 10.0136 9.63043C10.013 9.63141 10.0126 9.63233 10.0121 9.63318C10.0119 9.6336 10.0117 9.634 10.0115 9.63439C10.0114 9.63459 10.0113 9.63478 10.0112 9.63496C10.0111 9.63506 10.0111 9.63519 10.011 9.63524C10.011 9.63537 10.0109 9.63551 10.4551 9.86502ZM10.1498 9.98954C10.5038 11.381 10.5317 12.338 10.4806 12.9291C10.455 13.2249 10.4095 13.4305 10.3742 13.5547C10.3566 13.6168 10.3414 13.6589 10.3324 13.6819C10.3279 13.6934 10.325 13.7001 10.324 13.7023C10.3235 13.7034 10.3235 13.7033 10.3241 13.7021C10.3244 13.7015 10.3248 13.7006 10.3254 13.6995C10.3257 13.6989 10.326 13.6983 10.3263 13.6975C10.3265 13.6972 10.3267 13.6968 10.3269 13.6964C10.327 13.6962 10.3272 13.6959 10.3272 13.6958C10.3274 13.6955 10.3275 13.6952 10.7741 13.92C11.2207 14.1449 11.2209 14.1446 11.221 14.1442C11.2211 14.1441 11.2213 14.1438 11.2214 14.1435C11.2216 14.1431 11.2218 14.1426 11.2221 14.1421C11.2226 14.1411 11.2231 14.14 11.2237 14.1388C11.2248 14.1365 11.2261 14.1339 11.2275 14.131C11.2302 14.1252 11.2335 14.1181 11.2372 14.1099C11.2445 14.0934 11.2536 14.0721 11.2638 14.0458C11.2844 13.9933 11.3098 13.9209 11.3362 13.8279C11.3891 13.6416 11.4459 13.3733 11.4769 13.0153C11.5389 12.2989 11.4969 11.229 11.1189 9.74301L10.1498 9.98954ZM10.7741 13.92C10.3106 13.7326 10.3107 13.7324 10.3107 13.7322C10.3108 13.7321 10.3108 13.7319 10.3109 13.7318C10.311 13.7316 10.3111 13.7313 10.3112 13.7311C10.3114 13.7306 10.3116 13.7302 10.3117 13.7297C10.3121 13.7288 10.3125 13.728 10.3128 13.7272C10.3135 13.7255 10.3141 13.7241 10.3147 13.7228C10.3158 13.7203 10.3167 13.7183 10.3173 13.7169C10.3186 13.7141 10.3193 13.713 10.3193 13.713C10.3193 13.713 10.3192 13.7131 10.3191 13.7133C10.319 13.7135 10.3188 13.7137 10.3187 13.7139C10.3184 13.7144 10.3185 13.7141 10.3195 13.713C10.3209 13.7115 10.3611 13.6689 10.434 13.6685L10.4392 14.6685C10.7496 14.6669 10.9586 14.5001 11.0693 14.3746C11.1253 14.3112 11.1647 14.2497 11.1903 14.2043C11.2034 14.1811 11.2136 14.1607 11.2214 14.1444C11.2252 14.1362 11.2285 14.129 11.2312 14.1228C11.2325 14.1197 11.2337 14.1169 11.2348 14.1143C11.2354 14.113 11.2359 14.1118 11.2363 14.1107C11.2366 14.1101 11.2368 14.1096 11.237 14.109C11.2371 14.1088 11.2372 14.1085 11.2373 14.1083C11.2374 14.1081 11.2375 14.1079 11.2375 14.1079C11.2376 14.1077 11.2376 14.1075 10.7741 13.92ZM10.4647 13.6693C10.3266 13.6808 10.1232 13.7789 10.0592 13.8405C10.0285 13.8795 9.98801 13.9475 9.97574 13.9743C9.95621 14.0205 9.94834 14.0594 9.94643 14.0686C9.94085 14.0956 9.93867 14.1178 9.9381 14.1234C9.93642 14.1401 9.93561 14.1557 9.93521 14.1641C9.93426 14.1837 9.93357 14.2083 9.933 14.2343C9.93182 14.2879 9.93084 14.3644 9.93 14.4592C9.92831 14.6494 9.92713 14.9212 9.92634 15.249C9.92475 15.9048 9.92472 16.7884 9.92533 17.7003C9.92655 19.5255 9.93036 21.4619 9.92961 21.9207L10.9296 21.9223C10.9304 21.4622 10.9265 19.5214 10.9253 17.6996C10.9247 16.7879 10.9248 15.9055 10.9263 15.2514C10.9271 14.9241 10.9283 14.6549 10.93 14.468C10.9308 14.3742 10.9317 14.3031 10.9328 14.2562C10.9333 14.2321 10.9338 14.2182 10.9341 14.212C10.9343 14.2075 10.9341 14.2133 10.9331 14.2235C10.9328 14.2258 10.931 14.2455 10.9258 14.2709C10.924 14.2793 10.9163 14.3175 10.897 14.3633C10.8848 14.39 10.8444 14.4578 10.8137 14.4967C10.7499 14.5582 10.5465 14.6563 10.4086 14.6677L10.4647 13.6693ZM9.92961 21.9221C9.92951 21.8369 9.96623 21.7693 9.99992 21.732C10.0266 21.7026 10.0424 21.7008 10.02 21.7103C9.97349 21.73 9.87488 21.7512 9.74702 21.75C9.61942 21.7488 9.51984 21.7259 9.47169 21.7046C9.44832 21.6943 9.46234 21.6954 9.48728 21.7234C9.51873 21.7586 9.5555 21.825 9.55536 21.9106L8.55536 21.9089C8.55466 22.3249 8.88062 22.5368 9.06799 22.6195C9.27752 22.712 9.52164 22.7479 9.73775 22.7499C9.95361 22.7519 10.1987 22.7206 10.41 22.6311C10.6005 22.5504 10.9301 22.3402 10.9296 21.921L9.92961 21.9221ZM9.55536 21.9103C9.55586 21.4509 9.56279 19.5147 9.56692 17.6896C9.56898 16.7778 9.57034 15.8942 9.56984 15.2384C9.56959 14.9106 9.56888 14.6388 9.56754 14.4486C9.56687 14.3538 9.56604 14.2774 9.56499 14.2239C9.56448 14.1978 9.56385 14.1735 9.56298 14.154C9.56261 14.1456 9.56187 14.1305 9.56032 14.1143C9.5598 14.1088 9.55781 14.0875 9.55271 14.0615C9.55095 14.0526 9.54378 14.0155 9.52597 13.9711C9.51476 13.9452 9.47763 13.8793 9.44932 13.841C9.38905 13.7789 9.18956 13.6734 9.04998 13.6569L9.07323 14.6566C8.93374 14.6401 8.73433 14.5347 8.67414 14.4727C8.64592 14.4345 8.60887 14.3687 8.59775 14.3431C8.5801 14.2991 8.57309 14.2626 8.5715 14.2545C8.56672 14.2302 8.56505 14.2114 8.56483 14.2091C8.56391 14.1995 8.56378 14.1941 8.56398 14.1987C8.56427 14.2052 8.56471 14.2193 8.56519 14.2435C8.56611 14.2905 8.56691 14.3617 8.56756 14.4556C8.56888 14.6426 8.56959 14.9118 8.56984 15.2391C8.57034 15.8933 8.56898 16.7757 8.56692 17.6873C8.5628 19.5091 8.55586 21.4496 8.55536 21.9092L9.55536 21.9103ZM9.06161 13.6568C9.13428 13.6568 9.17528 13.6992 9.17748 13.7017C9.1786 13.7029 9.1789 13.7034 9.17865 13.7031C9.17843 13.7027 9.17826 13.7025 9.17831 13.7025C9.17838 13.7027 9.17905 13.7038 9.18039 13.7067C9.18108 13.7082 9.18199 13.7101 9.18312 13.7127C9.18368 13.714 9.18431 13.7155 9.18499 13.7171C9.18533 13.7179 9.18569 13.7188 9.18606 13.7197C9.18625 13.7201 9.18644 13.7206 9.18663 13.7211C9.18673 13.7213 9.18683 13.7216 9.18693 13.7218C9.18698 13.7219 9.18705 13.7221 9.18708 13.7222C9.18715 13.7224 9.18723 13.7225 8.72361 13.9098C8.25999 14.097 8.26006 14.0972 8.26014 14.0974C8.26017 14.0974 8.26024 14.0976 8.2603 14.0978C8.2604 14.098 8.26051 14.0983 8.26062 14.0986C8.26084 14.0991 8.26106 14.0997 8.2613 14.1002C8.26177 14.1014 8.26227 14.1026 8.26281 14.1039C8.26389 14.1064 8.2651 14.1093 8.26645 14.1124C8.26916 14.1186 8.27244 14.1259 8.27633 14.1341C8.28406 14.1504 8.29438 14.1709 8.30752 14.1942C8.33322 14.2397 8.37276 14.3014 8.42905 14.3649C8.54069 14.4909 8.75068 14.6568 9.06161 14.6568V13.6568ZM8.72361 13.9098C9.17048 13.6855 9.17064 13.6858 9.1708 13.6861C9.17084 13.6862 9.171 13.6865 9.1711 13.6867C9.1713 13.6871 9.17148 13.6875 9.17166 13.6879C9.17202 13.6886 9.17234 13.6892 9.17263 13.6898C9.1732 13.691 9.17362 13.6919 9.17391 13.6925C9.17448 13.6937 9.1745 13.6938 9.17402 13.6927C9.17307 13.6906 9.17013 13.6838 9.16567 13.6723C9.15674 13.6494 9.14166 13.6074 9.12413 13.5453C9.08911 13.4212 9.04398 13.2157 9.01891 12.9199C8.96882 12.3288 8.99844 11.3716 9.35475 9.97923L8.38597 9.73132C8.00553 11.218 7.96177 12.288 8.02249 13.0044C8.05283 13.3624 8.10915 13.6306 8.16173 13.8169C8.188 13.91 8.21326 13.9823 8.23372 14.0349C8.24395 14.0612 8.25297 14.0826 8.2603 14.099C8.26397 14.1073 8.26721 14.1143 8.26997 14.1201C8.27135 14.1231 8.27261 14.1257 8.27374 14.128C8.2743 14.1292 8.27484 14.1302 8.27534 14.1313C8.27559 14.1318 8.27583 14.1322 8.27606 14.1327C8.27618 14.1329 8.27635 14.1333 8.2764 14.1334C8.27657 14.1337 8.27674 14.1341 8.72361 13.9098Z" fill="white" mask="url(#path-3-inside-1_986_4875)"/>
<path d="M23.345 9.75C23.0355 9.74925 21.7515 10.675 21.75 14.1155C21.7492 14.7298 21.9359 15.0011 22.1009 15.2406C22.2314 15.4301 22.3482 15.5998 22.3477 15.9038C22.3467 16.5908 22.343 22.0553 22.343 22.0553C22.343 22.0553 23.0015 22.507 23.491 22.0343L23.345 9.75ZM23.345 9.75C23.4099 9.7499 23.4475 9.76678 23.4694 9.78654C23.4973 9.81178 23.4995 9.8417 23.4999 9.84695C23.4999 9.84736 23.5 9.84762 23.5 9.84771C23.5 9.84774 23.5 9.84775 23.5 9.84775L23.345 9.75ZM22 14.1156L22 14.1158C21.9993 14.6057 22.1277 14.8329 22.2564 15.025C22.272 15.0483 22.2885 15.072 22.3054 15.0964C22.4376 15.2869 22.5983 15.5183 22.5977 15.9041C22.5972 16.2475 22.5961 17.7852 22.595 19.2373L22.5936 21.1909L22.5932 21.8193L22.5931 21.9084C22.6473 21.9339 22.7158 21.9608 22.7914 21.9788C22.9407 22.0144 23.098 22.0128 23.2411 21.9165L23.2499 10.0475C23.2149 10.0691 23.1738 10.0986 23.1281 10.1378C22.9905 10.2557 22.8192 10.4538 22.6516 10.7618C22.3167 11.3772 22.0007 12.425 22 14.1156Z" stroke="white" stroke-width="0.5"/>
</svg>
