<svg width="752" height="136" viewBox="0 0 752 136" fill="none" xmlns="http://www.w3.org/2000/svg">
<rect width="752" height="136" rx="4" fill="white"/>
<path d="M28.104 35H30.786L33.72 26.504L36.636 35H39.3L43.044 22.634H40.164L37.878 30.932L35.142 22.634H32.262L29.526 30.932L27.24 22.634H24.36L28.104 35ZM48.0186 32.894C46.9206 32.894 46.1106 32.21 45.8046 31.202H52.5186C52.5186 27.692 50.8086 25.478 47.8926 25.478C45.1746 25.478 43.1046 27.512 43.1046 30.32C43.1046 33.182 45.2646 35.216 48.0366 35.216C49.4046 35.216 51.0066 34.64 51.8346 33.776L50.1606 32.066C49.6566 32.552 48.7566 32.894 48.0186 32.894ZM48.0006 27.8C49.0626 27.8 49.7466 28.394 49.9986 29.312H45.8406C46.1826 28.376 47.0106 27.8 48.0006 27.8ZM55.5745 28.214C56.8705 26.972 57.4825 25.838 57.4825 24.776C57.4825 23.462 56.7805 22.526 55.7725 22.526C54.8725 22.526 54.1525 23.282 54.1525 24.182C54.1525 25.064 54.8725 25.802 55.7365 25.802C55.5745 26.378 55.1965 26.99 54.6385 27.494L55.5745 28.214ZM62.198 27.422V25.694H59.57V35H62.198V30.554C62.198 28.808 63.44 27.692 65.384 27.692V25.478C63.962 25.478 62.81 26.216 62.198 27.422ZM71.292 32.894C70.194 32.894 69.384 32.21 69.078 31.202H75.792C75.792 27.692 74.082 25.478 71.166 25.478C68.448 25.478 66.378 27.512 66.378 30.32C66.378 33.182 68.538 35.216 71.31 35.216C72.678 35.216 74.28 34.64 75.108 33.776L73.434 32.066C72.93 32.552 72.03 32.894 71.292 32.894ZM71.274 27.8C72.336 27.8 73.02 28.394 73.272 29.312H69.114C69.456 28.376 70.284 27.8 71.274 27.8ZM86.7553 25.478C85.4593 25.478 84.1813 25.838 82.8673 26.504L83.7493 28.25C84.4873 27.872 85.2973 27.584 86.1613 27.584C87.6913 27.584 88.3033 28.448 88.3033 29.438V29.618C87.5113 29.312 86.6833 29.15 85.9273 29.15C83.7673 29.15 82.0573 30.41 82.0573 32.246C82.0573 34.028 83.5873 35.216 85.5673 35.216C86.5753 35.216 87.6373 34.82 88.3033 34.064V35H90.8413V29.438C90.8413 27.008 89.1853 25.478 86.7553 25.478ZM86.1613 33.398C85.2613 33.398 84.5953 32.93 84.5953 32.174C84.5953 31.418 85.3513 30.86 86.3053 30.86C87.0253 30.86 87.7093 30.986 88.3033 31.202V32.066C88.1233 32.93 87.1693 33.398 86.1613 33.398ZM93.0563 35H95.6843V22.418H93.0563V35ZM100.318 35H102.676L104.422 29.15L106.15 35H108.508L111.676 25.694H109.102L107.338 31.49L105.502 25.694H103.324L101.488 31.49L99.7242 25.694H97.1502L100.318 35ZM117.271 25.478C115.975 25.478 114.697 25.838 113.383 26.504L114.265 28.25C115.003 27.872 115.813 27.584 116.677 27.584C118.207 27.584 118.819 28.448 118.819 29.438V29.618C118.027 29.312 117.199 29.15 116.443 29.15C114.283 29.15 112.573 30.41 112.573 32.246C112.573 34.028 114.103 35.216 116.083 35.216C117.091 35.216 118.153 34.82 118.819 34.064V35H121.357V29.438C121.357 27.008 119.701 25.478 117.271 25.478ZM116.677 33.398C115.777 33.398 115.111 32.93 115.111 32.174C115.111 31.418 115.867 30.86 116.821 30.86C117.541 30.86 118.225 30.986 118.819 31.202V32.066C118.639 32.93 117.685 33.398 116.677 33.398ZM125.696 38.24C127.154 38.24 128.342 37.286 129.044 35.468L132.86 25.694H130.178L127.856 32.228L125.408 25.694H122.69L126.56 35.09L126.236 35.774C126.038 36.116 125.642 36.278 125.138 36.278C124.832 36.278 124.364 36.116 123.914 35.864L123.356 37.664C123.986 38.006 124.922 38.24 125.696 38.24ZM137.874 35.216C140.16 35.216 141.654 34.046 141.654 32.21C141.654 30.176 139.872 29.636 138.27 29.222C137.01 28.88 136.632 28.736 136.632 28.232C136.632 27.908 137.082 27.674 137.73 27.674C138.522 27.674 139.494 27.98 140.34 28.502L141.402 26.63C140.376 25.946 139.062 25.478 137.73 25.478C135.534 25.478 134.076 26.738 134.094 28.502C134.112 30.338 135.588 30.86 137.496 31.328C138.45 31.58 139.134 31.76 139.134 32.336C139.134 32.75 138.63 33.038 137.928 33.038C136.686 33.038 135.642 32.588 134.814 31.994L133.68 33.812C134.796 34.712 136.38 35.216 137.874 35.216ZM153.827 25.478C152.639 25.478 151.613 26.018 151.037 26.828V22.418H148.409V35H151.037V29.492C151.037 28.484 151.883 27.692 152.981 27.692C154.025 27.692 154.745 28.484 154.745 29.636V35H157.283V29.078C157.283 26.972 155.843 25.478 153.827 25.478ZM163.894 32.894C162.796 32.894 161.986 32.21 161.68 31.202H168.394C168.394 27.692 166.684 25.478 163.768 25.478C161.05 25.478 158.98 27.512 158.98 30.32C158.98 33.182 161.14 35.216 163.912 35.216C165.28 35.216 166.882 34.64 167.71 33.776L166.036 32.066C165.532 32.552 164.632 32.894 163.894 32.894ZM163.876 27.8C164.938 27.8 165.622 28.394 165.874 29.312H161.716C162.058 28.376 162.886 27.8 163.876 27.8ZM172.8 27.422V25.694H170.172V35H172.8V30.554C172.8 28.808 174.042 27.692 175.986 27.692V25.478C174.564 25.478 173.412 26.216 172.8 27.422ZM181.894 32.894C180.796 32.894 179.986 32.21 179.68 31.202H186.394C186.394 27.692 184.684 25.478 181.768 25.478C179.05 25.478 176.98 27.512 176.98 30.32C176.98 33.182 179.14 35.216 181.912 35.216C183.28 35.216 184.882 34.64 185.71 33.776L184.036 32.066C183.532 32.552 182.632 32.894 181.894 32.894ZM181.876 27.8C182.938 27.8 183.622 28.394 183.874 29.312H179.716C180.058 28.376 180.886 27.8 181.876 27.8ZM198.095 32.696C197.915 32.876 197.555 33.002 197.195 33.002C196.709 33.002 196.313 32.57 196.313 31.958V27.818H198.329V25.694H196.313V23.138H193.793V25.694H192.515V27.818H193.793V32.372C193.793 34.046 194.945 35.216 196.583 35.216C197.339 35.216 198.185 34.892 198.725 34.406L198.095 32.696ZM204.943 35.216C207.697 35.216 210.001 32.984 210.001 30.338C210.001 27.692 207.697 25.478 204.943 25.478C202.171 25.478 199.849 27.692 199.849 30.338C199.849 32.984 202.171 35.216 204.943 35.216ZM204.943 33.002C203.539 33.002 202.369 31.778 202.369 30.338C202.369 28.898 203.539 27.692 204.943 27.692C206.329 27.692 207.499 28.898 207.499 30.338C207.499 31.778 206.329 33.002 204.943 33.002ZM222.188 25.478C221 25.478 219.974 26.018 219.398 26.828V22.418H216.77V35H219.398V29.492C219.398 28.484 220.244 27.692 221.342 27.692C222.386 27.692 223.106 28.484 223.106 29.636V35H225.644V29.078C225.644 26.972 224.204 25.478 222.188 25.478ZM232.255 32.894C231.157 32.894 230.347 32.21 230.041 31.202H236.755C236.755 27.692 235.045 25.478 232.129 25.478C229.411 25.478 227.341 27.512 227.341 30.32C227.341 33.182 229.501 35.216 232.273 35.216C233.641 35.216 235.243 34.64 236.071 33.776L234.397 32.066C233.893 32.552 232.993 32.894 232.255 32.894ZM232.237 27.8C233.299 27.8 233.983 28.394 234.235 29.312H230.077C230.419 28.376 231.247 27.8 232.237 27.8ZM238.533 35H241.161V22.418H238.533V35ZM249.197 25.478C247.901 25.478 246.821 26.036 246.083 26.99V25.694H243.455V38.096H246.083V33.686C246.821 34.658 247.901 35.216 249.197 35.216C251.681 35.216 253.481 33.2 253.481 30.338C253.481 27.494 251.681 25.478 249.197 25.478ZM248.441 33.002C247.163 33.002 246.227 32.066 246.083 30.698V29.978C246.227 28.628 247.163 27.692 248.441 27.692C249.899 27.692 250.925 28.79 250.925 30.338C250.925 31.904 249.899 33.002 248.441 33.002Z" fill="#333333"/>
<circle cx="44" cy="88" r="20" fill="#3595FF"/>
<path d="M48.57 98.0001C48.8356 98.0017 49.0989 97.9503 49.3444 97.849C49.5899 97.7477 49.8128 97.5985 50 97.4101L52.71 94.7001C52.8963 94.5128 53.0008 94.2593 53.0008 93.9951C53.0008 93.731 52.8963 93.4775 52.71 93.2901L48.71 89.2901C48.5227 89.1039 48.2692 88.9993 48.005 88.9993C47.7408 88.9993 47.4874 89.1039 47.3 89.2901L45.7 90.8801C44.5923 90.5848 43.5663 90.041 42.7 89.2901C41.9512 88.4224 41.4077 87.397 41.11 86.2901L42.7 84.6901C42.8863 84.5028 42.9908 84.2493 42.9908 83.9851C42.9908 83.721 42.8863 83.4675 42.7 83.2801L38.7 79.2801C38.5127 79.0939 38.2592 78.9893 37.995 78.9893C37.7308 78.9893 37.4774 79.0939 37.29 79.2801L34.59 82.0001C34.4017 82.1874 34.2525 82.4103 34.1512 82.6558C34.0499 82.9013 33.9985 83.1645 34 83.4301C34.0908 87.2724 35.6261 90.9394 38.3 93.7001C41.0608 96.3741 44.7277 97.9094 48.57 98.0001ZM38 81.4101L40.59 84.0001L39.3 85.2901C39.1779 85.4046 39.0864 85.5479 39.0339 85.7069C38.9815 85.8659 38.9699 86.0355 39 86.2001C39.3738 87.8705 40.1651 89.4188 41.3 90.7001C42.5804 91.8365 44.1291 92.628 45.8 93.0001C45.9622 93.034 46.1303 93.0271 46.2891 92.98C46.4479 92.9329 46.5926 92.847 46.71 92.7301L48 91.4101L50.59 94.0001L48.59 96.0001C45.2738 95.9148 42.1095 94.5913 39.72 92.2901C37.4129 89.8997 36.0856 86.7312 36 83.4101L38 81.4101ZM52 87.0001H54C54.026 85.8111 53.8109 84.6292 53.3678 83.5255C52.9247 82.4219 52.2627 81.4194 51.4217 80.5784C50.5808 79.7375 49.5783 79.0755 48.4746 78.6324C47.371 78.1893 46.189 77.9742 45 78.0001V80.0001C45.9279 79.968 46.8525 80.1272 47.7163 80.4676C48.5801 80.808 49.3647 81.3225 50.0212 81.979C50.6777 82.6355 51.1922 83.42 51.5326 84.2838C51.873 85.1476 52.0321 86.0722 52 87.0001Z" fill="white"/>
<path d="M45 84C47.1 84 48 84.9 48 87H50C50 83.78 48.22 82 45 82V84Z" fill="white"/>
<path d="M80.496 83.192C82.16 83.192 83.696 82.472 84.768 81.352L83.056 79.816C82.416 80.552 81.504 81.048 80.496 81.048C78.656 81.048 77.088 79.416 77.088 77.496C77.088 75.592 78.656 73.96 80.496 73.96C81.504 73.96 82.416 74.456 83.056 75.192L84.768 73.656C83.696 72.52 82.16 71.816 80.496 71.816C77.344 71.816 74.656 74.408 74.656 77.496C74.656 80.584 77.344 83.192 80.496 83.192ZM89.8606 74.536C88.7086 74.536 87.5726 74.856 86.4046 75.448L87.1886 77C87.8446 76.664 88.5646 76.408 89.3326 76.408C90.6926 76.408 91.2366 77.176 91.2366 78.056V78.216C90.5326 77.944 89.7966 77.8 89.1246 77.8C87.2046 77.8 85.6846 78.92 85.6846 80.552C85.6846 82.136 87.0446 83.192 88.8046 83.192C89.7006 83.192 90.6446 82.84 91.2366 82.168V83H93.4926V78.056C93.4926 75.896 92.0206 74.536 89.8606 74.536ZM89.3326 81.576C88.5326 81.576 87.9406 81.16 87.9406 80.488C87.9406 79.816 88.6126 79.32 89.4606 79.32C90.1006 79.32 90.7086 79.432 91.2366 79.624V80.392C91.0766 81.16 90.2286 81.576 89.3326 81.576ZM95.4615 83H97.7975V71.816H95.4615V83ZM99.8365 83H102.173V71.816H99.8365V83ZM113.704 83.192C116.616 83.192 118.68 81.144 118.68 78.248V72.008H116.312V78.152C116.312 79.848 115.224 81.048 113.704 81.048C112.168 81.048 111.08 79.848 111.08 78.152V72.008H108.728V78.248C108.728 81.144 110.776 83.192 113.704 83.192ZM123.862 83.192C125.894 83.192 127.222 82.152 127.222 80.52C127.222 78.712 125.638 78.232 124.214 77.864C123.094 77.56 122.758 77.432 122.758 76.984C122.758 76.696 123.158 76.488 123.734 76.488C124.438 76.488 125.302 76.76 126.054 77.224L126.998 75.56C126.086 74.952 124.918 74.536 123.734 74.536C121.782 74.536 120.486 75.656 120.502 77.224C120.518 78.856 121.83 79.32 123.526 79.736C124.374 79.96 124.982 80.12 124.982 80.632C124.982 81 124.534 81.256 123.91 81.256C122.806 81.256 121.878 80.856 121.142 80.328L120.134 81.944C121.126 82.744 122.534 83.192 123.862 83.192Z" fill="#333333"/>
<path d="M82.416 100.064H79.344V96.976H78.144V100.064H75.072V101.248H78.144V104.32H79.344V101.248H82.416V100.064ZM88.3164 94.816C86.0284 94.816 84.4444 96.416 84.4444 98.448C84.4444 100.624 86.1244 101.872 88.1244 101.872C89.4204 101.872 90.5564 101.248 91.2284 100.192V100.336C91.2284 102.976 89.8364 105.056 88.0764 105.056C87.0204 105.056 86.3004 104.576 85.6124 103.904L84.9244 104.88C85.7404 105.664 86.7004 106.192 88.0444 106.192C90.5404 106.192 92.4924 103.616 92.4924 100.336C92.4924 97.232 91.2924 94.816 88.3164 94.816ZM88.3484 100.8C86.8764 100.8 85.7084 99.888 85.7084 98.384C85.7084 97.168 86.6844 95.888 88.3324 95.888C89.8684 95.888 90.7644 97.088 91.0844 98.752C90.8124 99.968 89.7404 100.8 88.3484 100.8ZM96.3331 106H97.5811V95.008H96.5731L93.8691 96.848L94.4131 97.776L96.3331 96.528V106ZM108.566 94.816C106.278 94.816 104.694 96.416 104.694 98.448C104.694 100.624 106.374 101.872 108.374 101.872C109.67 101.872 110.806 101.248 111.478 100.192V100.336C111.478 102.976 110.086 105.056 108.326 105.056C107.27 105.056 106.55 104.576 105.862 103.904L105.174 104.88C105.99 105.664 106.95 106.192 108.294 106.192C110.79 106.192 112.742 103.616 112.742 100.336C112.742 97.232 111.542 94.816 108.566 94.816ZM108.598 100.8C107.126 100.8 105.958 99.888 105.958 98.384C105.958 97.168 106.934 95.888 108.582 95.888C110.118 95.888 111.014 97.088 111.334 98.752C111.062 99.968 109.99 100.8 108.598 100.8ZM114.487 106H122.071V104.816H116.487L119.367 102.32C121.223 100.72 121.959 99.536 121.959 98.048C121.959 96.08 120.359 94.816 118.455 94.816C116.727 94.816 115.495 95.632 114.583 96.928L115.463 97.648C116.215 96.624 117.127 95.936 118.407 95.936C119.575 95.936 120.695 96.72 120.695 98.064C120.695 99.152 120.055 100.208 118.503 101.536L114.487 104.96V106ZM126.005 106H127.253V95.008H126.245L123.541 96.848L124.085 97.776L126.005 96.528V106ZM129.55 106H137.134V104.816H131.55L134.43 102.32C136.286 100.72 137.022 99.536 137.022 98.048C137.022 96.08 135.422 94.816 133.518 94.816C131.79 94.816 130.558 95.632 129.646 96.928L130.526 97.648C131.278 96.624 132.19 95.936 133.47 95.936C134.638 95.936 135.758 96.72 135.758 98.064C135.758 99.152 135.118 100.208 133.566 101.536L129.55 104.96V106ZM142.828 106.192C145.116 106.192 146.652 104.864 146.652 103.024C146.652 101.44 145.404 100.624 144.284 100.368C145.42 100.032 146.411 99.2 146.411 97.792C146.411 96.032 144.876 94.816 142.78 94.816C141.068 94.816 139.852 95.648 139.02 96.752L139.852 97.504C140.636 96.56 141.5 95.952 142.716 95.952C144.092 95.952 145.148 96.784 145.148 97.936C145.148 99.184 144.044 99.888 142.572 99.872L141.388 99.856V101.008H142.556C144.284 101.008 145.388 101.664 145.388 102.96C145.388 104.208 144.364 105.056 142.828 105.056C141.484 105.056 140.412 104.416 139.692 103.488L138.828 104.304C139.628 105.36 141.02 106.192 142.828 106.192ZM153.851 106H155.099V103.328H156.747V102.192H155.099V95.008H153.659L148.203 102.288L148.363 103.328H153.851V106ZM149.627 102.192L153.851 96.512V102.192H149.627ZM163.051 106.192C165.723 106.192 167.611 103.84 167.611 100.496C167.611 97.168 165.723 94.816 163.051 94.816C160.363 94.816 158.475 97.168 158.475 100.496C158.475 103.84 160.363 106.192 163.051 106.192ZM163.051 105.04C161.115 105.04 159.739 103.152 159.739 100.496C159.739 97.84 161.115 95.968 163.051 95.968C164.987 95.968 166.347 97.84 166.347 100.496C166.347 103.152 164.987 105.04 163.051 105.04ZM169.347 106H176.931V104.816H171.347L174.227 102.32C176.083 100.72 176.819 99.536 176.819 98.048C176.819 96.08 175.219 94.816 173.315 94.816C171.587 94.816 170.355 95.632 169.443 96.928L170.323 97.648C171.075 96.624 171.987 95.936 173.266 95.936C174.435 95.936 175.555 96.72 175.555 98.064C175.555 99.152 174.915 100.208 173.363 101.536L169.347 104.96V106ZM183.504 106.192C186.176 106.192 188.064 103.84 188.064 100.496C188.064 97.168 186.176 94.816 183.504 94.816C180.816 94.816 178.928 97.168 178.928 100.496C178.928 103.84 180.816 106.192 183.504 106.192ZM183.504 105.04C181.568 105.04 180.192 103.152 180.192 100.496C180.192 97.84 181.568 95.968 183.504 95.968C185.44 95.968 186.8 97.84 186.8 100.496C186.8 103.152 185.44 105.04 183.504 105.04ZM189.8 106H197.384V104.816H191.8L194.68 102.32C196.536 100.72 197.272 99.536 197.272 98.048C197.272 96.08 195.672 94.816 193.768 94.816C192.04 94.816 190.808 95.632 189.896 96.928L190.776 97.648C191.528 96.624 192.44 95.936 193.72 95.936C194.888 95.936 196.008 96.72 196.008 98.064C196.008 99.152 195.368 100.208 193.816 101.536L189.8 104.96V106Z" fill="#333333"/>
</svg>
