<svg width="10" height="7" viewBox="0 0 10 7" fill="none" xmlns="http://www.w3.org/2000/svg">
<path d="M9.40852 0.758352C9.33142 0.681099 9.23985 0.619809 9.13904 0.577991C9.03823 0.536174 8.93016 0.514648 8.82102 0.514648C8.71188 0.514648 8.60381 0.536174 8.503 0.577991C8.40219 0.619809 8.31061 0.681099 8.23352 0.758352L5.00019 3.99168L1.76685 0.758352C1.61104 0.602537 1.39971 0.515001 1.17935 0.515001C0.958999 0.515001 0.747667 0.602537 0.591852 0.758352C0.436037 0.914167 0.348503 1.1255 0.348503 1.34585C0.348503 1.56621 0.436037 1.77754 0.591852 1.93335L4.41685 5.75835C4.49395 5.8356 4.58552 5.89689 4.68633 5.93871C4.78714 5.98053 4.89521 6.00205 5.00435 6.00205C5.11349 6.00205 5.22156 5.98053 5.32237 5.93871C5.42318 5.89689 5.51476 5.8356 5.59185 5.75835L9.41685 1.93335C9.73352 1.61669 9.73352 1.08335 9.40852 0.758352Z" fill="#797979"/>
</svg>
