<svg width="113" height="11" viewBox="0 0 113 11" fill="none" xmlns="http://www.w3.org/2000/svg">
<path d="M2.52 10H3.612V0.381999H2.73L0.364 1.992L0.84 2.804L2.52 1.712V10ZM5.62155 10H12.2575V8.964H7.37155L9.89155 6.78C11.5155 5.38 12.1595 4.344 12.1595 3.042C12.1595 1.32 10.7595 0.213999 9.09355 0.213999C7.58155 0.213999 6.50355 0.928 5.70555 2.062L6.47555 2.692C7.13355 1.796 7.93155 1.194 9.05155 1.194C10.0735 1.194 11.0535 1.88 11.0535 3.056C11.0535 4.008 10.4935 4.932 9.13555 6.094L5.62155 9.09V10ZM17.4217 10.168C19.3957 10.168 20.9357 9.118 20.9357 7.48C20.9357 6.276 19.9837 5.422 18.8217 5.03C19.8157 4.666 20.6977 3.952 20.6977 2.776C20.6977 1.194 19.1437 0.213999 17.4217 0.213999C15.7557 0.213999 14.1597 1.166 14.1597 2.762C14.1597 3.868 14.9437 4.61 16.0357 5.03C14.8597 5.408 13.9077 6.276 13.9077 7.48C13.9077 9.104 15.4337 10.168 17.4217 10.168ZM17.4217 4.596C16.5117 4.54 15.2657 3.994 15.2657 2.874C15.2657 1.908 16.2177 1.208 17.4217 1.208C18.6257 1.208 19.5917 1.908 19.5917 2.874C19.5917 3.966 18.3597 4.54 17.4217 4.596ZM17.4217 9.174C16.0917 9.174 15.0137 8.46 15.0137 7.41C15.0137 6.248 16.4277 5.576 17.4217 5.548C18.4297 5.576 19.8297 6.248 19.8297 7.41C19.8297 8.46 18.7517 9.174 17.4217 9.174ZM24.1899 10H25.2819V0.381999H24.3999L22.0339 1.992L22.5099 2.804L24.1899 1.712V10ZM30.8475 10.168C32.8215 10.168 34.3615 9.118 34.3615 7.48C34.3615 6.276 33.4095 5.422 32.2475 5.03C33.2415 4.666 34.1235 3.952 34.1235 2.776C34.1235 1.194 32.5695 0.213999 30.8475 0.213999C29.1815 0.213999 27.5855 1.166 27.5855 2.762C27.5855 3.868 28.3695 4.61 29.4615 5.03C28.2855 5.408 27.3335 6.276 27.3335 7.48C27.3335 9.104 28.8595 10.168 30.8475 10.168ZM30.8475 4.596C29.9375 4.54 28.6915 3.994 28.6915 2.874C28.6915 1.908 29.6435 1.208 30.8475 1.208C32.0515 1.208 33.0175 1.908 33.0175 2.874C33.0175 3.966 31.7855 4.54 30.8475 4.596ZM30.8475 9.174C29.5175 9.174 28.4395 8.46 28.4395 7.41C28.4395 6.248 29.8535 5.576 30.8475 5.548C31.8555 5.576 33.2555 6.248 33.2555 7.41C33.2555 8.46 32.1775 9.174 30.8475 9.174ZM39.9257 10.168C42.2637 10.168 43.9157 8.11 43.9157 5.184C43.9157 2.272 42.2637 0.213999 39.9257 0.213999C37.5737 0.213999 35.9217 2.272 35.9217 5.184C35.9217 8.11 37.5737 10.168 39.9257 10.168ZM39.9257 9.16C38.2317 9.16 37.0277 7.508 37.0277 5.184C37.0277 2.86 38.2317 1.222 39.9257 1.222C41.6197 1.222 42.8097 2.86 42.8097 5.184C42.8097 7.508 41.6197 9.16 39.9257 9.16ZM47.268 10H48.36V0.381999H47.478L45.112 1.992L45.588 2.804L47.268 1.712V10ZM53.7436 10.168C55.7456 10.168 57.0896 9.006 57.0896 7.396C57.0896 6.01 55.9976 5.296 55.0176 5.072C56.0116 4.778 56.8796 4.05 56.8796 2.818C56.8796 1.278 55.5356 0.213999 53.7016 0.213999C52.2036 0.213999 51.1396 0.942 50.4116 1.908L51.1396 2.566C51.8256 1.74 52.5816 1.208 53.6456 1.208C54.8496 1.208 55.7736 1.936 55.7736 2.944C55.7736 4.036 54.8076 4.652 53.5196 4.638L52.4836 4.624V5.632H53.5056C55.0176 5.632 55.9836 6.206 55.9836 7.34C55.9836 8.432 55.0876 9.174 53.7436 9.174C52.5676 9.174 51.6296 8.614 50.9996 7.802L50.2436 8.516C50.9436 9.44 52.1616 10.168 53.7436 10.168ZM62.7167 10.168C65.0547 10.168 66.7067 8.11 66.7067 5.184C66.7067 2.272 65.0547 0.213999 62.7167 0.213999C60.3647 0.213999 58.7127 2.272 58.7127 5.184C58.7127 8.11 60.3647 10.168 62.7167 10.168ZM62.7167 9.16C61.0227 9.16 59.8187 7.508 59.8187 5.184C59.8187 2.86 61.0227 1.222 62.7167 1.222C64.4107 1.222 65.6007 2.86 65.6007 5.184C65.6007 7.508 64.4107 9.16 62.7167 9.16ZM72.3691 10.168C74.7071 10.168 76.3591 8.11 76.3591 5.184C76.3591 2.272 74.7071 0.213999 72.3691 0.213999C70.0171 0.213999 68.3651 2.272 68.3651 5.184C68.3651 8.11 70.0171 10.168 72.3691 10.168ZM72.3691 9.16C70.6751 9.16 69.4711 7.508 69.4711 5.184C69.4711 2.86 70.6751 1.222 72.3691 1.222C74.0631 1.222 75.2531 2.86 75.2531 5.184C75.2531 7.508 74.0631 9.16 72.3691 9.16ZM82.0214 10.168C84.3594 10.168 86.0114 8.11 86.0114 5.184C86.0114 2.272 84.3594 0.213999 82.0214 0.213999C79.6694 0.213999 78.0174 2.272 78.0174 5.184C78.0174 8.11 79.6694 10.168 82.0214 10.168ZM82.0214 9.16C80.3274 9.16 79.1234 7.508 79.1234 5.184C79.1234 2.86 80.3274 1.222 82.0214 1.222C83.7154 1.222 84.9054 2.86 84.9054 5.184C84.9054 7.508 83.7154 9.16 82.0214 9.16ZM87.5298 10H94.1658V8.964H89.2798L91.7998 6.78C93.4238 5.38 94.0678 4.344 94.0678 3.042C94.0678 1.32 92.6678 0.213999 91.0018 0.213999C89.4898 0.213999 88.4118 0.928 87.6138 2.062L88.3838 2.692C89.0418 1.796 89.8398 1.194 90.9597 1.194C91.9818 1.194 92.9618 1.88 92.9618 3.056C92.9618 4.008 92.4018 4.932 91.0438 6.094L87.5298 9.09V10ZM99.7499 3.994C98.6159 3.994 97.6219 4.54 97.0339 5.464V5.338C97.0339 3.028 98.2519 1.208 99.7919 1.208C100.716 1.208 101.346 1.628 101.948 2.216L102.55 1.362C101.836 0.676 100.996 0.213999 99.8199 0.213999C97.6359 0.213999 95.9279 2.468 95.9279 5.338C95.9279 8.054 96.9779 10.168 99.5819 10.168C101.584 10.168 102.97 8.768 102.97 6.99C102.97 5.086 101.5 3.994 99.7499 3.994ZM99.5679 9.23C98.2239 9.23 97.4399 8.18 97.1599 6.724C97.3979 5.66 98.3359 4.932 99.5539 4.932C100.842 4.932 101.864 5.73 101.864 7.046C101.864 8.11 101.01 9.23 99.5679 9.23ZM108.641 10.168C110.979 10.168 112.631 8.11 112.631 5.184C112.631 2.272 110.979 0.213999 108.641 0.213999C106.289 0.213999 104.637 2.272 104.637 5.184C104.637 8.11 106.289 10.168 108.641 10.168ZM108.641 9.16C106.947 9.16 105.743 7.508 105.743 5.184C105.743 2.86 106.947 1.222 108.641 1.222C110.335 1.222 111.525 2.86 111.525 5.184C111.525 7.508 110.335 9.16 108.641 9.16Z" fill="#797979"/>
</svg>
