<svg width="24" height="18" viewBox="0 0 24 18" fill="none" xmlns="http://www.w3.org/2000/svg">
<path d="M17.4655 0.848388C17.1749 0.918701 16.7483 1.16714 16.5421 1.39214C16.439 1.50464 16.2843 1.73901 16.2046 1.91245C16.078 2.17964 16.0593 2.27808 16.0593 2.61089L16.0546 2.99995L15.8905 3.04683C15.8015 3.07026 15.253 3.2062 14.6718 3.35151C13.4249 3.66089 13.3733 3.67964 13.289 3.84839C13.153 4.1062 13.2515 4.39683 13.5046 4.49995C13.6452 4.56089 13.7436 4.54214 14.6999 4.30308L15.7405 4.04526L15.7733 4.40151C15.839 5.13276 15.9561 5.3437 16.2936 5.3437C16.5093 5.3437 16.6218 5.27808 16.7155 5.10464C16.7858 4.95933 16.7858 4.86089 16.7061 4.30308L16.678 4.12964L17.039 4.31245C17.2358 4.41558 17.4327 4.49995 17.4796 4.49995C17.5265 4.49995 17.5921 4.57026 17.6436 4.67339C17.6905 4.77183 17.9343 5.24526 18.1968 5.72808C18.4546 6.21089 18.7358 6.78276 18.8296 6.9937C19.0358 7.48589 19.2046 8.22651 19.2468 8.81714C19.2796 9.27651 19.2796 9.27651 19.1671 9.29995C18.6796 9.40308 18.4921 9.44995 18.1733 9.56714C17.9671 9.64214 17.6436 9.78745 17.4515 9.89058C17.1186 10.0687 17.0999 10.0734 17.1233 9.97495C17.1936 9.68901 17.2124 9.04214 17.1561 8.9062C17.053 8.65776 16.7577 8.55933 16.5046 8.69526C16.3358 8.77964 16.2796 8.93433 16.2421 9.42183C16.1577 10.5562 15.7499 11.3812 15.1077 11.7281C14.6343 11.9859 14.4046 12.0234 13.3124 12.0234H12.3046L11.9905 11.8687C11.414 11.5875 11.0858 11.0718 11.0858 10.4531C11.0858 10.1625 11.1093 10.0546 11.2171 9.83433C11.3577 9.54839 11.864 8.97651 12.178 8.74214C12.2858 8.66245 12.3936 8.54526 12.4265 8.47495C12.4593 8.39058 12.4733 8.03433 12.4593 7.39683L12.4452 6.44526L12.2952 6.1312C12.089 5.69526 11.8265 5.42339 11.3999 5.21245L11.0436 5.03901H7.6452H4.24208L3.92802 5.18901C3.49208 5.39526 3.2202 5.65776 3.00926 6.08433L2.83583 6.44058L2.82176 7.22339L2.80301 8.01089L2.48426 8.24995C1.50458 8.97651 0.763952 10.2515 0.351452 11.9296C0.0983274 12.9656 -0.0704226 14.5359 0.0467649 14.8125C0.159265 15.0796 0.24364 15.0937 1.61239 15.0937H2.84989L2.94833 15.4125C3.17333 16.1625 3.77802 16.7765 4.57489 17.0718C4.97333 17.2171 5.8077 17.2171 6.20614 17.0718C7.00302 16.7765 7.6077 16.1625 7.8327 15.4125L7.93114 15.0937H12.703H17.4749L17.5733 15.4125C17.803 16.1671 18.4265 16.8 19.214 17.0718C19.6546 17.2218 20.3765 17.2218 20.8218 17.0718C22.0733 16.6406 22.8093 15.3562 22.528 14.0953C22.4343 13.6781 22.2421 13.2703 22.0077 12.9984L21.8436 12.8062L22.8515 12.1453C23.4046 11.7843 23.8921 11.4328 23.9343 11.3671C24.0749 11.1562 23.9952 10.9359 23.6858 10.65C22.8843 9.90933 21.8155 9.4312 20.639 9.27651L20.203 9.21558V9.0187C20.203 8.64839 20.0624 7.74839 19.9405 7.3312C19.7858 6.78276 19.5796 6.32808 19.0733 5.38589C18.8436 4.95933 18.6561 4.5937 18.6561 4.57964C18.6561 4.56089 18.8249 4.54683 19.0311 4.54683C19.2327 4.54683 19.4577 4.52339 19.5233 4.49058C19.7718 4.37808 19.7811 4.30308 19.7811 2.67183C19.7811 1.04058 19.7718 0.965576 19.5233 0.853076C19.378 0.787451 17.7468 0.782763 17.4655 0.848388ZM18.8436 2.67651V3.6187L18.2249 3.59995C17.6671 3.58589 17.5827 3.57651 17.4233 3.47339C16.9077 3.15464 16.8233 2.44214 17.2499 2.01558C17.4843 1.7812 17.6202 1.7437 18.2952 1.73901L18.8436 1.73433V2.67651ZM7.17177 6.89058V7.82808H5.46083H3.74989V7.29839C3.74989 7.01245 3.77333 6.6937 3.80145 6.59526C3.86239 6.37495 4.16239 6.06558 4.36864 6.00464C4.45302 5.9812 5.11864 5.95776 5.84989 5.95776L7.17177 5.95308V6.89058ZM11.0952 6.10308C11.1983 6.17339 11.3343 6.30933 11.3952 6.40776C11.4983 6.56714 11.5077 6.65151 11.5218 7.20464L11.5405 7.82808H9.82489H8.10927V6.88589V5.94839L9.50614 5.96245L10.9077 5.97651L11.0952 6.10308ZM10.7155 8.8687C10.5515 9.09839 10.3546 9.45464 10.2561 9.70308C10.1061 10.0781 10.1061 10.7765 10.2561 11.2125C10.5186 11.9812 11.1046 12.5671 11.8874 12.8484C12.2765 12.9937 13.7718 13.0312 14.4327 12.9187C14.6765 12.8765 14.8827 12.8484 14.8921 12.8625C14.9015 12.8718 14.878 13.0031 14.8311 13.1531C14.789 13.2984 14.728 13.5843 14.6999 13.7765L14.6436 14.1328L11.9858 14.1468L9.32802 14.1562V14.0437C9.32802 13.8703 9.1077 13.1484 8.96708 12.8765C7.91239 10.7859 5.44208 10.05 3.21083 11.1656C3.00458 11.2687 2.70926 11.4421 2.55458 11.5546C2.23583 11.7796 1.67801 12.3468 1.33583 12.7875C1.21395 12.9468 1.10145 13.0734 1.09208 13.064C1.05926 13.0265 1.31708 11.9109 1.4577 11.4796C1.85614 10.2656 2.5077 9.30464 3.23426 8.86401C3.39833 8.76558 3.4077 8.76558 7.09677 8.76558H10.7905L10.7155 8.8687ZM20.7796 10.2421C21.4218 10.3546 22.2608 10.6968 22.6405 11.0062L22.7483 11.0906L21.8765 11.6625L21.0093 12.2296L20.6155 12.1312C19.3218 11.8078 17.9811 12.5531 17.5686 13.8328L17.4655 14.1562H16.5374H15.6093V14.025C15.6093 13.7906 15.7968 13.1578 15.9843 12.764C16.8608 10.9078 18.7921 9.89526 20.7796 10.2421ZM6.02333 11.6484C7.08739 11.8687 8.02958 12.7593 8.32489 13.8187C8.36708 13.9781 8.3952 14.1187 8.38114 14.1328C8.36708 14.1468 6.80614 14.1515 4.9077 14.1468L1.46239 14.1328L1.98739 13.4765C2.2827 13.1109 2.64364 12.7031 2.79364 12.5671C3.66551 11.789 4.9452 11.4234 6.02333 11.6484ZM20.7374 13.1671C21.089 13.3406 21.3374 13.5937 21.5108 13.964C21.614 14.1843 21.6327 14.2921 21.6327 14.625C21.6327 14.9812 21.614 15.0609 21.478 15.3375C21.2999 15.6984 21.0468 15.9468 20.6765 16.1203C20.4561 16.2234 20.3483 16.2421 20.0155 16.2421C19.6827 16.2421 19.5749 16.2234 19.3546 16.1203C18.9843 15.9468 18.7311 15.6984 18.553 15.3375C18.4171 15.0609 18.3983 14.9812 18.3983 14.625C18.3983 14.2921 18.4171 14.1843 18.5202 13.9687C18.928 13.0968 19.8936 12.75 20.7374 13.1671ZM6.93739 15.15C6.93739 15.2671 6.66083 15.689 6.48739 15.8437C6.16395 16.125 5.84052 16.2421 5.39052 16.2421C4.94052 16.2421 4.61708 16.125 4.29364 15.8437C4.1202 15.689 3.84364 15.2671 3.84364 15.15C3.84364 15.1078 4.18583 15.0937 5.39052 15.0937C6.5952 15.0937 6.93739 15.1078 6.93739 15.15Z" fill="#AC8E48"/>
<path d="M16.3639 6.58125C15.9561 6.80625 16.1295 7.45312 16.5936 7.45312C16.8327 7.45312 17.0624 7.22344 17.0624 6.98906C17.0624 6.6375 16.6733 6.40781 16.3639 6.58125Z" fill="#AC8E48"/>
</svg>
