<svg width="752" height="72" viewBox="0 0 752 72" fill="none" xmlns="http://www.w3.org/2000/svg">
<rect width="752" height="72" rx="4" fill="white"/>
<path d="M33.184 41H35.536V34.152L38.944 40.36L42.336 34.152V41H44.704V30.008H42.336L38.944 36.216L35.536 30.008H33.184V41ZM48.067 31.592C48.755 31.592 49.315 31.016 49.315 30.312C49.315 29.656 48.755 29.064 48.067 29.064C47.347 29.064 46.787 29.656 46.787 30.312C46.787 31.016 47.347 31.592 48.067 31.592ZM46.883 41H49.219V32.728H46.883V41ZM54.3624 41.192C56.3944 41.192 57.7224 40.152 57.7224 38.52C57.7224 36.712 56.1384 36.232 54.7144 35.864C53.5944 35.56 53.2584 35.432 53.2584 34.984C53.2584 34.696 53.6584 34.488 54.2344 34.488C54.9384 34.488 55.8024 34.76 56.5544 35.224L57.4984 33.56C56.5864 32.952 55.4184 32.536 54.2344 32.536C52.2824 32.536 50.9864 33.656 51.0024 35.224C51.0184 36.856 52.3304 37.32 54.0264 37.736C54.8744 37.96 55.4824 38.12 55.4824 38.632C55.4824 39 55.0344 39.256 54.4104 39.256C53.3064 39.256 52.3784 38.856 51.6424 38.328L50.6344 39.944C51.6264 40.744 53.0344 41.192 54.3624 41.192ZM62.3936 41.192C64.4256 41.192 65.7536 40.152 65.7536 38.52C65.7536 36.712 64.1696 36.232 62.7456 35.864C61.6256 35.56 61.2896 35.432 61.2896 34.984C61.2896 34.696 61.6896 34.488 62.2656 34.488C62.9696 34.488 63.8336 34.76 64.5856 35.224L65.5296 33.56C64.6176 32.952 63.4496 32.536 62.2656 32.536C60.3136 32.536 59.0176 33.656 59.0336 35.224C59.0496 36.856 60.3616 37.32 62.0576 37.736C62.9056 37.96 63.5136 38.12 63.5136 38.632C63.5136 39 63.0656 39.256 62.4416 39.256C61.3376 39.256 60.4096 38.856 59.6736 38.328L58.6656 39.944C59.6576 40.744 61.0656 41.192 62.3936 41.192ZM68.4889 31.592C69.1769 31.592 69.7369 31.016 69.7369 30.312C69.7369 29.656 69.1769 29.064 68.4889 29.064C67.7689 29.064 67.2089 29.656 67.2089 30.312C67.2089 31.016 67.7689 31.592 68.4889 31.592ZM67.3049 41H69.6409V32.728H67.3049V41ZM76.4643 32.536C75.3923 32.536 74.4643 33.016 73.9683 33.768V32.728H71.6323V41H73.9683V36.056L73.9843 36.104C73.9843 35.208 74.7363 34.504 75.7123 34.504C76.6403 34.504 77.2803 35.208 77.2803 36.232V41H79.5363V35.736C79.5363 33.864 78.2563 32.536 76.4643 32.536ZM87.4924 32.728V33.848C86.9324 33.064 85.8764 32.536 84.7564 32.536C82.6764 32.536 81.0924 34.152 81.0924 36.456C81.0924 38.76 82.6764 40.392 84.7564 40.392C85.8444 40.392 86.8364 39.912 87.4924 39.112V40.024C87.4924 41.096 86.5324 41.784 85.0284 41.784C84.0684 41.784 83.1084 41.48 82.5644 41L81.7484 42.648C82.5644 43.288 83.9404 43.752 85.3964 43.752C88.0044 43.752 89.8444 42.248 89.8444 40.12V32.728H87.4924ZM85.4924 38.424C84.3244 38.424 83.4924 37.608 83.4924 36.456C83.4924 35.304 84.3244 34.504 85.4924 34.504C86.6604 34.504 87.4924 35.304 87.4924 36.456C87.4924 37.608 86.6604 38.424 85.4924 38.424ZM99.4718 41.192C101.504 41.192 102.832 40.152 102.832 38.52C102.832 36.712 101.248 36.232 99.8238 35.864C98.7038 35.56 98.3678 35.432 98.3678 34.984C98.3678 34.696 98.7678 34.488 99.3438 34.488C100.048 34.488 100.912 34.76 101.664 35.224L102.608 33.56C101.696 32.952 100.528 32.536 99.3438 32.536C97.3918 32.536 96.0958 33.656 96.1118 35.224C96.1278 36.856 97.4398 37.32 99.1358 37.736C99.9838 37.96 100.592 38.12 100.592 38.632C100.592 39 100.144 39.256 99.5198 39.256C98.4158 39.256 97.4878 38.856 96.7518 38.328L95.7438 39.944C96.7358 40.744 98.1438 41.192 99.4718 41.192ZM108.463 41.192C110.911 41.192 112.959 39.208 112.959 36.856C112.959 34.504 110.911 32.536 108.463 32.536C105.999 32.536 103.935 34.504 103.935 36.856C103.935 39.208 105.999 41.192 108.463 41.192ZM108.463 39.224C107.215 39.224 106.175 38.136 106.175 36.856C106.175 35.576 107.215 34.504 108.463 34.504C109.695 34.504 110.735 35.576 110.735 36.856C110.735 38.136 109.695 39.224 108.463 39.224ZM124.38 32.536C123.148 32.536 122.124 33.128 121.692 34.04C121.18 33.112 120.204 32.536 119.068 32.536C118.044 32.536 117.228 33.032 116.828 33.816V32.728H114.492V41H116.828V36.008C116.828 35.128 117.484 34.504 118.428 34.504C119.276 34.504 119.884 35.176 119.884 36.136V41.016H122.124V36.008C122.124 35.128 122.796 34.504 123.724 34.504C124.588 34.504 125.196 35.176 125.196 36.136V41.016H127.436V35.736C127.436 33.864 126.108 32.536 124.38 32.536ZM133.303 39.128C132.327 39.128 131.607 38.52 131.335 37.624H137.303C137.303 34.504 135.783 32.536 133.191 32.536C130.775 32.536 128.935 34.344 128.935 36.84C128.935 39.384 130.855 41.192 133.319 41.192C134.535 41.192 135.959 40.68 136.695 39.912L135.207 38.392C134.759 38.824 133.959 39.128 133.303 39.128ZM133.287 34.6C134.231 34.6 134.839 35.128 135.063 35.944H131.367C131.671 35.112 132.407 34.6 133.287 34.6ZM144.52 31.592C145.208 31.592 145.768 31.016 145.768 30.312C145.768 29.656 145.208 29.064 144.52 29.064C143.8 29.064 143.24 29.656 143.24 30.312C143.24 31.016 143.8 31.592 144.52 31.592ZM143.336 41H145.672V32.728H143.336V41ZM152.496 32.536C151.424 32.536 150.496 33.016 150 33.768V32.728H147.664V41H150V36.056L150.016 36.104C150.016 35.208 150.768 34.504 151.744 34.504C152.672 34.504 153.312 35.208 153.312 36.232V41H155.568V35.736C155.568 33.864 154.288 32.536 152.496 32.536ZM160.308 32.28C160.308 31.736 160.66 31.352 161.092 31.352C161.412 31.352 161.732 31.464 161.892 31.624L162.452 30.2C161.972 29.768 161.22 29.48 160.548 29.48C159.092 29.48 158.068 30.52 158.068 32.008V32.728H156.932V34.616H158.068V41H160.308V34.616H162.1V32.728H160.308V32.28ZM167.666 41.192C170.114 41.192 172.162 39.208 172.162 36.856C172.162 34.504 170.114 32.536 167.666 32.536C165.202 32.536 163.138 34.504 163.138 36.856C163.138 39.208 165.202 41.192 167.666 41.192ZM167.666 39.224C166.418 39.224 165.378 38.136 165.378 36.856C165.378 35.576 166.418 34.504 167.666 34.504C168.898 34.504 169.938 35.576 169.938 36.856C169.938 38.136 168.898 39.224 167.666 39.224ZM176.079 34.264V32.728H173.743V41H176.079V37.048C176.079 35.496 177.183 34.504 178.911 34.504V32.536C177.647 32.536 176.623 33.192 176.079 34.264ZM190.098 32.536C188.866 32.536 187.842 33.128 187.41 34.04C186.898 33.112 185.922 32.536 184.786 32.536C183.762 32.536 182.946 33.032 182.546 33.816V32.728H180.21V41H182.546V36.008C182.546 35.128 183.202 34.504 184.146 34.504C184.994 34.504 185.602 35.176 185.602 36.136V41.016H187.842V36.008C187.842 35.128 188.514 34.504 189.442 34.504C190.306 34.504 190.914 35.176 190.914 36.136V41.016H193.154V35.736C193.154 33.864 191.826 32.536 190.098 32.536ZM198.814 32.536C197.662 32.536 196.526 32.856 195.358 33.448L196.142 35C196.798 34.664 197.518 34.408 198.286 34.408C199.646 34.408 200.19 35.176 200.19 36.056V36.216C199.486 35.944 198.75 35.8 198.078 35.8C196.158 35.8 194.638 36.92 194.638 38.552C194.638 40.136 195.998 41.192 197.758 41.192C198.654 41.192 199.598 40.84 200.19 40.168V41H202.446V36.056C202.446 33.896 200.974 32.536 198.814 32.536ZM198.286 39.576C197.486 39.576 196.894 39.16 196.894 38.488C196.894 37.816 197.566 37.32 198.414 37.32C199.054 37.32 199.662 37.432 200.19 37.624V38.392C200.03 39.16 199.182 39.576 198.286 39.576ZM208.767 38.952C208.607 39.112 208.287 39.224 207.967 39.224C207.535 39.224 207.183 38.84 207.183 38.296V34.616H208.975V32.728H207.183V30.456H204.943V32.728H203.807V34.616H204.943V38.664C204.943 40.152 205.967 41.192 207.423 41.192C208.095 41.192 208.847 40.904 209.327 40.472L208.767 38.952ZM211.958 31.592C212.646 31.592 213.206 31.016 213.206 30.312C213.206 29.656 212.646 29.064 211.958 29.064C211.238 29.064 210.678 29.656 210.678 30.312C210.678 31.016 211.238 31.592 211.958 31.592ZM210.774 41H213.11V32.728H210.774V41ZM219.213 41.192C221.661 41.192 223.709 39.208 223.709 36.856C223.709 34.504 221.661 32.536 219.213 32.536C216.749 32.536 214.685 34.504 214.685 36.856C214.685 39.208 216.749 41.192 219.213 41.192ZM219.213 39.224C217.965 39.224 216.925 38.136 216.925 36.856C216.925 35.576 217.965 34.504 219.213 34.504C220.445 34.504 221.485 35.576 221.485 36.856C221.485 38.136 220.445 39.224 219.213 39.224ZM230.074 32.536C229.002 32.536 228.074 33.016 227.578 33.768V32.728H225.242V41H227.578V36.056L227.594 36.104C227.594 35.208 228.346 34.504 229.322 34.504C230.25 34.504 230.89 35.208 230.89 36.232V41H233.146V35.736C233.146 33.864 231.866 32.536 230.074 32.536ZM236.798 37.224H238.878V36.072C240.526 35.688 241.71 34.392 241.71 32.952C241.71 31.144 240.238 29.816 238.11 29.816C236.526 29.816 235.262 30.52 234.35 31.544L235.694 32.92C236.206 32.344 236.926 31.928 237.71 31.928C238.686 31.928 239.31 32.504 239.31 33.176C239.31 33.944 238.27 34.536 236.798 34.6V37.224ZM237.838 41.192C238.622 41.192 239.262 40.52 239.262 39.704C239.262 38.952 238.622 38.28 237.838 38.28C237.006 38.28 236.35 38.952 236.35 39.704C236.35 40.52 237.006 41.192 237.838 41.192Z" fill="#333333"/>
<path d="M624 36C624 27.1634 631.163 20 640 20H704C712.837 20 720 27.1634 720 36C720 44.8366 712.837 52 704 52H640C631.163 52 624 44.8366 624 36Z" fill="#3595FF"/>
<path d="M649.008 40H651.332L647.412 30.382H645.102L641.182 40H643.492L644.108 38.488H648.392L649.008 40ZM644.822 36.738L646.25 33.224L647.678 36.738H644.822ZM657.814 30.214V33.798C657.24 33.042 656.4 32.594 655.378 32.594C653.446 32.594 652.046 34.162 652.046 36.374C652.046 38.6 653.446 40.168 655.378 40.168C656.4 40.168 657.24 39.72 657.814 38.964V40H659.858V30.214H657.814ZM655.966 38.446C654.832 38.446 654.034 37.592 654.034 36.374C654.034 35.17 654.832 34.316 655.966 34.316C657.044 34.316 657.814 35.17 657.814 36.374C657.814 37.592 657.044 38.446 655.966 38.446ZM667.056 30.214V33.798C666.482 33.042 665.642 32.594 664.62 32.594C662.688 32.594 661.288 34.162 661.288 36.374C661.288 38.6 662.688 40.168 664.62 40.168C665.642 40.168 666.482 39.72 667.056 38.964V40H669.1V30.214H667.056ZM665.208 38.446C664.074 38.446 663.276 37.592 663.276 36.374C663.276 35.17 664.074 34.316 665.208 34.316C666.286 34.316 667.056 35.17 667.056 36.374C667.056 37.592 666.286 38.446 665.208 38.446ZM678.99 32.594C678.052 32.594 677.24 33.014 676.806 33.672V32.762H674.762V40H676.806V35.674L676.82 35.716C676.82 34.932 677.478 34.316 678.332 34.316C679.144 34.316 679.704 34.932 679.704 35.828V40H681.678V35.394C681.678 33.756 680.558 32.594 678.99 32.594ZM686.96 40.168C689.102 40.168 690.894 38.432 690.894 36.374C690.894 34.316 689.102 32.594 686.96 32.594C684.804 32.594 682.998 34.316 682.998 36.374C682.998 38.432 684.804 40.168 686.96 40.168ZM686.96 38.446C685.868 38.446 684.958 37.494 684.958 36.374C684.958 35.254 685.868 34.316 686.96 34.316C688.038 34.316 688.948 35.254 688.948 36.374C688.948 37.494 688.038 38.446 686.96 38.446ZM693.755 40H695.589L696.947 35.45L698.291 40H700.125L702.589 32.762H700.587L699.215 37.27L697.787 32.762H696.093L694.665 37.27L693.293 32.762H691.291L693.755 40Z" fill="white"/>
<path d="M28 11H724V9H28V11ZM727 14V58H729V14H727ZM724 61H28V63H724V61ZM25 58V14H23V58H25ZM28 61C26.3431 61 25 59.6569 25 58H23C23 60.7614 25.2386 63 28 63V61ZM727 58C727 59.6569 725.657 61 724 61V63C726.761 63 729 60.7614 729 58H727ZM724 11C725.657 11 727 12.3431 727 14H729C729 11.2386 726.761 9 724 9V11ZM28 9C25.2386 9 23 11.2386 23 14H25C25 12.3431 26.3431 11 28 11V9Z" fill="#3595FF"/>
</svg>
