<svg width="40" height="40" viewBox="0 0 40 40" fill="none" xmlns="http://www.w3.org/2000/svg">
<path fill-rule="evenodd" clip-rule="evenodd" d="M22.21 1.03993C21.0134 -0.346644 18.8644 -0.346646 17.6677 1.03993L15.9807 2.99472C15.7127 3.3053 15.2821 3.42067 14.8947 3.28571L12.4563 2.43634C10.7267 1.83385 8.86557 2.90835 8.52253 4.70749L8.03891 7.2439C7.96207 7.64689 7.64689 7.96207 7.2439 8.03891L4.70749 8.52253C2.90835 8.86557 1.83385 10.7267 2.43633 12.4563L3.28571 14.8947C3.42067 15.2821 3.3053 15.7127 2.99472 15.9807L1.03993 17.6677C-0.346644 18.8644 -0.346646 21.0134 1.03993 22.21L2.99472 23.8971C3.3053 24.1651 3.42067 24.5956 3.28571 24.9831L2.43634 27.4215C1.85343 29.0949 2.84028 30.8913 4.5344 31.317L0.723339 34.3304C0.290119 34.673 0.216613 35.3018 0.559159 35.7351C0.901706 36.1683 1.53059 36.2418 1.96381 35.8993L7.12717 31.8166L7.2439 31.8388C7.64689 31.9157 7.96207 32.2309 8.03891 32.6339L8.52253 35.1703C8.86557 36.9694 10.7267 38.0439 12.4563 37.4414L14.8947 36.592C15.2821 36.4571 15.7127 36.5725 15.9807 36.883L17.6677 38.8378C18.8644 40.2244 21.0134 40.2244 22.21 38.8378L23.8971 36.883C24.1651 36.5725 24.5956 36.4571 24.9831 36.592L27.4215 37.4414C29.1511 38.0439 31.0122 36.9694 31.3552 35.1703L31.8388 32.6339C31.9157 32.2309 32.2309 31.9157 32.6339 31.8388L35.1703 31.3552C36.9694 31.0122 38.0439 29.1511 37.4414 27.4215L36.592 24.9831C36.4571 24.5956 36.5725 24.1651 36.883 23.8971L38.8378 22.21C40.2244 21.0134 40.2244 18.8644 38.8378 17.6677L36.883 15.9807C36.5725 15.7127 36.4571 15.2821 36.592 14.8947L37.4414 12.4563C37.9267 11.0633 37.3241 9.58494 36.1313 8.88311L39.6158 6.12795C40.049 5.7854 40.1225 5.15652 39.7799 4.72329C39.4374 4.29007 38.8085 4.21657 38.3753 4.55911L33.7139 8.24485L32.6339 8.03891C32.2309 7.96207 31.9157 7.64689 31.8388 7.2439L31.3552 4.70749C31.0122 2.90835 29.1511 1.83385 27.4215 2.43633L24.9831 3.28571C24.5956 3.42067 24.1651 3.3053 23.8971 2.99472L22.21 1.03993ZM31.6982 9.83867C30.7646 9.46201 30.0677 8.63301 29.8742 7.6185L29.3906 5.08208C29.2763 4.48237 28.6559 4.1242 28.0794 4.32503L25.641 5.17441C24.4787 5.57926 23.1871 5.23317 22.383 4.30143L20.6959 2.34665C20.297 1.88445 19.5807 1.88445 19.1818 2.34664L17.4948 4.30143C16.6907 5.23317 15.3991 5.57926 14.2368 5.17441L11.7984 4.32503C11.2218 4.1242 10.6015 4.48237 10.4871 5.08208L10.0035 7.6185C9.773 8.82746 8.82747 9.773 7.6185 10.0035L5.08208 10.4871C4.48237 10.6015 4.1242 11.2218 4.32503 11.7984L5.17441 14.2368C5.57926 15.3991 5.23317 16.6907 4.30143 17.4948L2.34665 19.1818C1.88445 19.5807 1.88445 20.297 2.34664 20.6959L4.30143 22.383C5.23317 23.1871 5.57926 24.4787 5.17441 25.641L4.32503 28.0794C4.1242 28.6559 4.48237 29.2763 5.08208 29.3906L6.60379 29.6808L31.6982 9.83867ZM8.87474 30.4348C9.45087 30.8739 9.86198 31.5169 10.0035 32.2593L10.4871 34.7957C10.6015 35.3954 11.2218 35.7536 11.7984 35.5527L14.2368 34.7033C15.3991 34.2985 16.6907 34.6446 17.4948 35.5763L19.1818 37.5311C19.5807 37.9933 20.297 37.9933 20.6959 37.5311L22.383 35.5763C23.1871 34.6446 24.4787 34.2985 25.641 34.7033L28.0794 35.5527C28.6559 35.7536 29.2763 35.3954 29.3906 34.7957L29.8742 32.2593C30.1048 31.0503 31.0503 30.1048 32.2593 29.8742L34.7957 29.3906C35.3954 29.2763 35.7536 28.6559 35.5527 28.0794L34.7033 25.641C34.2985 24.4787 34.6446 23.1871 35.5763 22.383L37.5311 20.6959C37.9933 20.297 37.9933 19.5807 37.5311 19.1818L35.5763 17.4948C34.6446 16.6907 34.2985 15.3991 34.7033 14.2368L35.5527 11.7984C35.7536 11.2218 35.3954 10.6015 34.7957 10.4871L34.2373 10.3807L8.87474 30.4348ZM14.9389 15.4389C14.9389 14.6105 15.6105 13.9389 16.4389 13.9389C17.2673 13.9389 17.9389 14.6105 17.9389 15.4389C17.9389 16.2673 17.2673 16.9389 16.4389 16.9389C15.6105 16.9389 14.9389 16.2673 14.9389 15.4389ZM16.4389 11.9389C14.5059 11.9389 12.9389 13.5059 12.9389 15.4389C12.9389 17.3719 14.5059 18.9389 16.4389 18.9389C18.3719 18.9389 19.9389 17.3719 19.9389 15.4389C19.9389 13.5059 18.3719 11.9389 16.4389 11.9389ZM21.9389 24.4389C21.9389 23.6105 22.6105 22.9389 23.4389 22.9389C24.2673 22.9389 24.9389 23.6105 24.9389 24.4389C24.9389 25.2673 24.2673 25.9389 23.4389 25.9389C22.6105 25.9389 21.9389 25.2673 21.9389 24.4389ZM23.4389 20.9389C21.5059 20.9389 19.9389 22.5059 19.9389 24.4389C19.9389 26.3719 21.5059 27.9389 23.4389 27.9389C25.3719 27.9389 26.9389 26.3719 26.9389 24.4389C26.9389 22.5059 25.3719 20.9389 23.4389 20.9389Z" fill="#DCDCDC"/>
</svg>
