<svg width="24" height="20" viewBox="0 0 24 20" fill="none" xmlns="http://www.w3.org/2000/svg">
<path d="M11.0156 0.531271C10.5516 0.629709 0.885938 3.27346 0.684375 3.35315C0.459375 3.44221 0.229688 3.67658 0.1125 3.92971C0.01875 4.12658 0 4.23908 0 4.63752C0 5.36408 0.16875 5.71564 0.623438 5.94533L0.8625 6.06252H3.75H6.6375L6.88125 5.94065L7.125 5.81877L7.36875 5.94065L7.6125 6.06252H9.61875H11.625V9.62502V13.1828L9.675 13.1969L7.725 13.211L7.6125 13.3422C7.46719 13.511 7.46719 13.675 7.61719 13.8203L7.72969 13.9375H9.29531H10.8609L10.8844 14.3078C10.9125 14.7766 11.0625 15.0531 11.3953 15.2641L11.625 15.4047V16.3844C11.625 17.275 11.6156 17.3641 11.5453 17.3875C10.8563 17.5985 10.3359 18.1235 10.1906 18.761C10.0969 19.1547 10.1062 19.3141 10.2422 19.4453C10.5047 19.7078 10.8375 19.5297 10.8891 19.0985C10.9031 18.9625 10.9688 18.7656 11.025 18.6578C11.1234 18.4797 11.4844 18.1563 11.5828 18.1563C11.6063 18.1563 11.625 18.4188 11.625 18.7422C11.625 19.3047 11.6297 19.3375 11.7422 19.4453C11.8922 19.6 12.1078 19.6 12.2578 19.4453C12.3703 19.3375 12.375 19.3047 12.375 18.7422C12.375 18.4188 12.3938 18.1563 12.4172 18.1563C12.5156 18.1563 12.8766 18.4797 12.975 18.6578C13.0312 18.7656 13.0969 18.9625 13.1109 19.0985C13.1625 19.5297 13.4953 19.7078 13.7578 19.4453C13.8938 19.3141 13.9031 19.1547 13.8094 18.761C13.6641 18.1235 13.1438 17.5985 12.4594 17.3875C12.3844 17.3641 12.375 17.275 12.375 16.3844V15.4047L12.6047 15.2641C12.9375 15.0531 13.0875 14.7766 13.1156 14.3078L13.1391 13.9375H14.7047H16.2703L16.3828 13.8203C16.5328 13.675 16.5328 13.511 16.3875 13.3422L16.275 13.211L14.325 13.1969L12.375 13.1828V9.62502V6.06252H14.3813H16.3875L16.6313 5.94065L16.875 5.81877L17.1188 5.94065L17.3625 6.06252H20.25H23.1375L23.3766 5.94533C23.8313 5.71564 24 5.36408 24 4.63752C24 4.23908 23.9813 4.12658 23.8875 3.92971C23.7703 3.67658 23.5406 3.44221 23.3156 3.35315C23.0953 3.26408 13.425 0.625021 12.9609 0.526583C12.4078 0.409395 11.5641 0.414083 11.0156 0.531271ZM12.2531 1.23908C12.3562 1.26721 13.1484 1.76877 14.0344 2.36408L15.6234 3.43752H12.0469C9.97969 3.43752 8.48438 3.41877 8.5125 3.39533C8.53594 3.37189 8.94375 3.09533 9.42188 2.78127C9.9 2.46721 10.5703 2.00315 10.9078 1.75471C11.6672 1.20627 11.8594 1.13127 12.2531 1.23908ZM9.1875 2.04533C8.86406 2.26096 8.25 2.66408 7.82344 2.93596L7.04531 3.43752L5.14688 3.42814L3.24844 3.41408L6.44063 2.53752C8.19844 2.05471 9.66562 1.66096 9.70312 1.66096C9.74063 1.65627 9.51094 1.82971 9.1875 2.04533ZM17.7 2.57971L20.7563 3.41408L19.8656 3.43752L18.975 3.46096L18.8625 3.59221C18.7172 3.76096 18.7172 3.92502 18.8672 4.07033L18.9797 4.18752H21.0844C22.9641 4.18752 23.1984 4.19689 23.2219 4.26252C23.2359 4.30471 23.25 4.50158 23.25 4.70783C23.25 5.04064 23.2359 5.0969 23.1328 5.19533L23.0203 5.31252H20.25H17.4797L17.3672 5.19533C17.2594 5.09221 17.25 5.04533 17.25 4.63283V4.18752H17.5078C17.7234 4.18752 17.7891 4.16877 17.8828 4.07033C18.0328 3.92502 18.0328 3.76096 17.8875 3.59221C17.7797 3.47033 17.7469 3.46096 17.3578 3.44221L16.9453 3.42814L15.7266 2.60315C15.0563 2.15314 14.4891 1.76408 14.4609 1.73596C14.4 1.67502 14.2031 1.62346 17.7 2.57971ZM6.75 4.63283C6.75 5.04533 6.74063 5.09221 6.63281 5.19533L6.52031 5.31252H3.75H0.979688L0.867188 5.19533C0.764063 5.0969 0.75 5.04064 0.75 4.70783C0.75 4.50158 0.764063 4.30471 0.778125 4.26252C0.80625 4.19689 1.11094 4.18752 3.77813 4.18752H6.75V4.63283ZM16.5 4.63283C16.5 5.04533 16.4906 5.09221 16.3828 5.19533L16.2703 5.31252H12H7.72969L7.61719 5.19533C7.50938 5.09221 7.5 5.04533 7.5 4.63283V4.18752H12H16.5V4.63283ZM12.375 14.1953C12.375 14.5094 12.2391 14.6875 12 14.6875C11.7609 14.6875 11.625 14.5094 11.625 14.1953V13.9375H12H12.375V14.1953Z" fill="#AC8E48"/>
<path d="M2.12781 10.9844C2.07156 11.0078 1.99187 11.0734 1.94968 11.1344C1.78562 11.3687 1.9075 11.6125 2.23093 11.6922C2.35281 11.725 2.47937 11.7953 2.53093 11.8656C2.62 11.9781 2.62468 12.0625 2.62468 14.4625V16.9422L2.43718 18.0625C2.33406 18.6766 2.24968 19.2156 2.24968 19.2578C2.24968 19.3844 2.46531 19.5625 2.62468 19.5625C2.91531 19.5625 2.96687 19.45 3.13562 18.4141C3.22 17.8984 3.29968 17.4391 3.30906 17.3922C3.3325 17.3172 3.45437 17.3125 5.06218 17.3125C6.67 17.3125 6.79187 17.3172 6.81531 17.3922C6.82468 17.4391 6.90437 17.8984 6.98875 18.4141C7.1575 19.45 7.20906 19.5625 7.49968 19.5625C7.65906 19.5625 7.87468 19.3844 7.87468 19.2578C7.87468 19.2156 7.79031 18.6766 7.68718 18.0625C7.51375 17.0219 7.49968 16.8812 7.49968 16.0141C7.49968 14.9828 7.48093 14.9031 7.21843 14.7719C7.06843 14.6969 6.87156 14.6875 5.21687 14.6875H3.37937L3.36531 13.2203C3.35125 11.8141 3.34656 11.7484 3.24812 11.5656C3.02781 11.1578 2.44656 10.8531 2.12781 10.9844ZM6.74968 16V16.5625H5.06218H3.37468V16V15.4375H5.06218H6.74968V16Z" fill="#AC8E48"/>
<path d="M21.4547 11.0031C21.1734 11.0781 20.9156 11.2844 20.7656 11.5516C20.6484 11.7578 20.6484 11.7578 20.6344 13.2203L20.6203 14.6875H18.7828C17.1281 14.6875 16.9313 14.6969 16.7813 14.7719C16.5188 14.9031 16.5 14.9828 16.5 16.0141C16.5 16.8813 16.4859 17.0219 16.3125 18.0625C16.2094 18.6766 16.125 19.2156 16.125 19.2578C16.125 19.3844 16.3406 19.5625 16.5 19.5625C16.7906 19.5625 16.8422 19.45 17.0109 18.4141C17.0953 17.8984 17.175 17.4391 17.1844 17.3922C17.2078 17.3172 17.3297 17.3125 18.9375 17.3125C20.5453 17.3125 20.6672 17.3172 20.6906 17.3922C20.7 17.4391 20.7797 17.8984 20.8641 18.4141C21.0328 19.45 21.0844 19.5625 21.375 19.5625C21.5344 19.5625 21.75 19.3844 21.75 19.2578C21.75 19.2156 21.6656 18.6766 21.5625 18.0625L21.375 16.9422V14.4625C21.375 12.0625 21.3797 11.9781 21.4688 11.8656C21.5203 11.7953 21.6469 11.725 21.7688 11.6922C22.111 11.6078 22.2281 11.336 22.0219 11.1063C21.886 10.9563 21.736 10.9281 21.4547 11.0031ZM20.625 16V16.5625H18.9375H17.25V16V15.4375H18.9375H20.625V16Z" fill="#AC8E48"/>
</svg>
