<svg width="18" height="19" viewBox="0 0 18 19" fill="none" xmlns="http://www.w3.org/2000/svg">
<path d="M6.5 11.625C6.5 11.28 6.78 11 7.125 11H10.875C11.0408 11 11.1997 11.0658 11.3169 11.1831C11.4342 11.3003 11.5 11.4592 11.5 11.625C11.5 11.7908 11.4342 11.9497 11.3169 12.0669C11.1997 12.1842 11.0408 12.25 10.875 12.25H7.125C6.78 12.25 6.5 11.97 6.5 11.625Z" fill="#AC8E48"/>
<path d="M5 10C5 10.2652 4.89464 10.5196 4.70711 10.7071C4.51957 10.8946 4.26522 11 4 11C3.73478 11 3.48043 10.8946 3.29289 10.7071C3.10536 10.5196 3 10.2652 3 10C3 9.73478 3.10536 9.48043 3.29289 9.29289C3.48043 9.10536 3.73478 9 4 9C4.26522 9 4.51957 9.10536 4.70711 9.29289C4.89464 9.48043 5 9.73478 5 10Z" fill="#AC8E48"/>
<path d="M14 11C14.2652 11 14.5196 10.8946 14.7071 10.7071C14.8946 10.5196 15 10.2652 15 10C15 9.73478 14.8946 9.48043 14.7071 9.29289C14.5196 9.10536 14.2652 9 14 9C13.7348 9 13.4804 9.10536 13.2929 9.29289C13.1054 9.48043 13 9.73478 13 10C13 10.2652 13.1054 10.5196 13.2929 10.7071C13.4804 10.8946 13.7348 11 14 11Z" fill="#AC8E48"/>
<path d="M1.3825 6.1335L1.599 5.25H0.625C0.45924 5.25 0.300269 5.18415 0.183058 5.06694C0.065848 4.94973 0 4.79076 0 4.625C0 4.45924 0.065848 4.30027 0.183058 4.18306C0.300269 4.06585 0.45924 4 0.625 4H1.905L2.3015 2.3815C2.46791 1.70216 2.8574 1.09829 3.40765 0.666519C3.95789 0.234753 4.63708 5.92796e-05 5.3365 0H12.49C13.169 5.72242e-05 13.8296 0.221297 14.3717 0.630241C14.9138 1.03918 15.308 1.61358 15.4945 2.2665L15.9895 4H17.3755C17.4576 4 17.5388 4.01617 17.6147 4.04758C17.6905 4.07898 17.7594 4.12502 17.8174 4.18306C17.8755 4.24109 17.9215 4.30999 17.9529 4.38582C17.9843 4.46165 18.0005 4.54292 18.0005 4.625C18.0005 4.70708 17.9843 4.78835 17.9529 4.86418C17.9215 4.94001 17.8755 5.00891 17.8174 5.06694C17.7594 5.12498 17.6905 5.17102 17.6147 5.20243C17.5388 5.23383 17.4576 5.25 17.3755 5.25H16.347L16.597 6.1255C17.008 6.27414 17.3633 6.54586 17.6143 6.90365C17.8654 7.26144 18 7.68792 18 8.125V16.875C18 17.306 17.8288 17.7193 17.524 18.024C17.2193 18.3288 16.806 18.5 16.375 18.5H14.625C14.194 18.5 13.7807 18.3288 13.476 18.024C13.1712 17.7193 13 17.306 13 16.875V15.25H5V16.875C5 17.306 4.82879 17.7193 4.52405 18.024C4.2193 18.3288 3.80598 18.5 3.375 18.5H1.625C1.19402 18.5 0.780698 18.3288 0.475951 18.024C0.171205 17.7193 0 17.306 0 16.875V8.125C5.17537e-05 7.69172 0.132486 7.2688 0.379568 6.91288C0.626649 6.55696 0.976581 6.28503 1.3825 6.1335V6.1335ZM3.5155 2.679L2.702 6H15.2605L14.292 2.61C14.1801 2.21818 13.9435 1.87348 13.6182 1.62809C13.2929 1.3827 12.8965 1.24998 12.489 1.25H5.337C4.91733 1.25004 4.50981 1.39087 4.17966 1.64995C3.84951 1.90903 3.61582 2.27138 3.516 2.679H3.5155ZM2.125 7.25C1.89294 7.25 1.67038 7.34219 1.50628 7.50628C1.34219 7.67038 1.25 7.89294 1.25 8.125V14H16.75V8.125C16.75 7.89294 16.6578 7.67038 16.4937 7.50628C16.3296 7.34219 16.1071 7.25 15.875 7.25H2.125ZM14.25 16.875C14.25 17.082 14.418 17.25 14.625 17.25H16.375C16.4745 17.25 16.5698 17.2105 16.6402 17.1402C16.7105 17.0698 16.75 16.9745 16.75 16.875V15.25H14.25V16.875ZM1.25 15.25V16.875C1.25 17.082 1.418 17.25 1.625 17.25H3.375C3.47446 17.25 3.56984 17.2105 3.64016 17.1402C3.71049 17.0698 3.75 16.9745 3.75 16.875V15.25H1.25Z" fill="#AC8E48"/>
</svg>
