<svg width="7" height="10" viewBox="0 0 7 10" fill="none" xmlns="http://www.w3.org/2000/svg">
<path d="M0.758352 0.591726C0.681099 0.66882 0.619809 0.760394 0.577991 0.861205C0.536174 0.962017 0.514648 1.07009 0.514648 1.17923C0.514648 1.28837 0.536174 1.39643 0.577991 1.49725C0.619809 1.59806 0.681099 1.68963 0.758352 1.76673L3.99168 5.00006L0.758352 8.23339C0.602537 8.38921 0.515001 8.60054 0.515001 8.82089C0.515001 9.04125 0.602537 9.25258 0.758352 9.40839C0.914167 9.56421 1.1255 9.65174 1.34585 9.65174C1.56621 9.65174 1.77754 9.56421 1.93335 9.40839L5.75835 5.58339C5.8356 5.5063 5.89689 5.41472 5.93871 5.31391C5.98053 5.2131 6.00205 5.10503 6.00205 4.99589C6.00205 4.88675 5.98053 4.77868 5.93871 4.67787C5.89689 4.57706 5.8356 4.48549 5.75835 4.40839L1.93335 0.583392C1.61669 0.266726 1.08335 0.266726 0.758352 0.591726Z" fill="#797979"/>
</svg>
