<svg width="24" height="24" viewBox="0 0 24 24" fill="none" xmlns="http://www.w3.org/2000/svg">
<path d="M21.5 12.76V14.5H21V12.77C21 10.433 19.2828 8.47865 17 8.22731V7.64511C18.0426 7.4134 18.85 6.47511 18.85 5.35C18.85 4.22489 18.0426 3.2866 17 3.05488V2.54373C18.3355 2.78012 19.35 3.94672 19.35 5.35C19.35 6.14016 19.028 6.85342 18.4993 7.37358L17.9902 7.87452L18.6351 8.18147C20.3339 8.99 21.5 10.7362 21.5 12.76ZM2.5 16.5H16.5V18.5H2.5V16.5ZM21 16.5H21.5V18.5H21V16.5ZM18.5 16.5H19V18.5H18.5V16.5ZM14.5 10.7H16.03C17.6805 10.7 19 11.8796 19 13.36V14.5H18.5V13.7C18.5 12.9218 18.2235 12.2753 17.756 11.824C17.2929 11.3769 16.672 11.15 16.03 11.15H14.5C13.7441 11.15 13.0192 10.8497 12.4847 10.3153C11.9503 9.78078 11.65 9.05587 11.65 8.3C11.65 6.89672 12.6645 5.73012 14 5.49373V6.00057C12.9793 6.20942 12.15 7.04825 12.15 8.2C12.15 8.84582 12.4169 9.46283 12.8295 9.91822C13.2425 10.3741 13.8325 10.7 14.5 10.7Z" stroke="#AC8E48"/>
</svg>
