<svg width="24" height="24" viewBox="0 0 24 24" fill="none" xmlns="http://www.w3.org/2000/svg">
<path d="M12.0329 22.4067C11.8561 22.4067 11.6866 22.3365 11.5615 22.2114C11.4365 22.0864 11.3663 21.9168 11.3663 21.74V2.24669C11.344 2.14906 11.3441 2.04767 11.3664 1.95005C11.3887 1.85243 11.4327 1.76109 11.4951 1.68281C11.5576 1.60453 11.6368 1.54132 11.7271 1.49788C11.8173 1.45444 11.9161 1.43188 12.0163 1.43188C12.1164 1.43188 12.2153 1.45444 12.3055 1.49788C12.3957 1.54132 12.475 1.60453 12.5374 1.68281C12.5999 1.76109 12.6439 1.85243 12.6662 1.95005C12.6885 2.04767 12.6885 2.14906 12.6663 2.24669V21.7534C12.6631 21.9222 12.596 22.0836 12.4784 22.2049C12.3608 22.3261 12.2016 22.3983 12.0329 22.4067Z" fill="#AC8E48"/>
<path d="M12.0402 6.71327L9.68019 4.35994C9.55602 4.23503 9.48633 4.06606 9.48633 3.88994C9.48633 3.71381 9.55602 3.54484 9.68019 3.41994C9.8051 3.29577 9.97407 3.22607 10.1502 3.22607C10.3263 3.22607 10.4953 3.29577 10.6202 3.41994L12.0402 4.83327L13.4535 3.41994C13.5784 3.29577 13.7474 3.22607 13.9235 3.22607C14.0996 3.22607 14.2686 3.29577 14.3935 3.41994C14.5177 3.54484 14.5874 3.71381 14.5874 3.88994C14.5874 4.06606 14.5177 4.23503 14.3935 4.35994L12.0402 6.71327Z" fill="#AC8E48"/>
<path d="M13.9001 20.78C13.7252 20.7792 13.5576 20.7098 13.4334 20.5866L12.0001 19.1733L10.6001 20.5866C10.4752 20.7108 10.3062 20.7805 10.1301 20.7805C9.95397 20.7805 9.785 20.7108 9.66009 20.5866C9.5976 20.5246 9.54801 20.4509 9.51416 20.3697C9.48032 20.2884 9.46289 20.2013 9.46289 20.1133C9.46289 20.0253 9.48032 19.9381 9.51416 19.8569C9.54801 19.7757 9.5976 19.7019 9.66009 19.64L12.0001 17.2866L14.3601 19.64C14.4226 19.7019 14.4722 19.7757 14.506 19.8569C14.5399 19.9381 14.5573 20.0253 14.5573 20.1133C14.5573 20.2013 14.5399 20.2884 14.506 20.3697C14.4722 20.4509 14.4226 20.5246 14.3601 20.5866C14.2376 20.7082 14.0727 20.7775 13.9001 20.78Z" fill="#AC8E48"/>
<path d="M20.6133 17.6667C20.4965 17.6675 20.3816 17.6376 20.28 17.58L2.94665 7.58002C2.79461 7.48983 2.68462 7.34294 2.64086 7.17167C2.59711 7.00039 2.62317 6.81875 2.71332 6.66669C2.75742 6.59085 2.81607 6.52447 2.88588 6.47134C2.9557 6.41821 3.03531 6.37939 3.12016 6.35709C3.20501 6.3348 3.29343 6.32947 3.38034 6.34141C3.46725 6.35335 3.55096 6.38233 3.62665 6.42669L20.96 16.4267C21.0884 16.4995 21.1891 16.6128 21.2461 16.7489C21.3032 16.8851 21.3135 17.0363 21.2754 17.1789C21.2372 17.3215 21.1528 17.4474 21.0354 17.5369C20.918 17.6264 20.7743 17.6744 20.6266 17.6734L20.6133 17.6667Z" fill="#AC8E48"/>
<path d="M4.00016 10.2466C3.82335 10.2696 3.64465 10.2214 3.50337 10.1126C3.36209 10.0038 3.26981 9.84339 3.24682 9.66658C3.22384 9.48977 3.27203 9.31107 3.3808 9.16979C3.48957 9.02851 3.65001 8.93623 3.82682 8.91324L5.76016 8.39324L5.22682 6.48658C5.2006 6.40103 5.19186 6.31109 5.20113 6.2221C5.2104 6.13311 5.23749 6.0469 5.28079 5.9686C5.32408 5.8903 5.38269 5.82151 5.45313 5.76634C5.52356 5.71117 5.60439 5.67074 5.69078 5.64747C5.77717 5.62419 5.86736 5.61854 5.95598 5.63086C6.0446 5.64317 6.12983 5.6732 6.2066 5.71915C6.28337 5.7651 6.35011 5.82604 6.40283 5.89833C6.45556 5.97061 6.49319 6.05277 6.51349 6.13991L7.38016 9.33324L4.16016 10.2199C4.10845 10.2367 4.05452 10.2457 4.00016 10.2466Z" fill="#AC8E48"/>
<path d="M18.0332 18.36C17.8818 18.3648 17.7333 18.3179 17.6121 18.227C17.4909 18.1361 17.4043 18.0067 17.3665 17.86L16.5332 14.6667L19.7465 13.8C19.8321 13.7738 19.922 13.7651 20.011 13.7743C20.1 13.7836 20.1862 13.8107 20.2645 13.854C20.3428 13.8973 20.4116 13.9559 20.4668 14.0263C20.5219 14.0968 20.5624 14.1776 20.5856 14.264C20.6089 14.3504 20.6146 14.4406 20.6023 14.5292C20.5899 14.6178 20.5599 14.703 20.514 14.7798C20.468 14.8566 20.4071 14.9233 20.3348 14.976C20.2625 15.0288 20.1803 15.0664 20.0932 15.0867L18.1599 15.6067L18.6799 17.54C18.7246 17.7106 18.6999 17.892 18.6112 18.0445C18.5225 18.1969 18.377 18.308 18.2065 18.3534C18.1496 18.3657 18.0909 18.3679 18.0332 18.36Z" fill="#AC8E48"/>
<path d="M3.2934 17.6666C3.14579 17.6676 3.00201 17.6196 2.88461 17.5301C2.76721 17.4406 2.68282 17.3147 2.6447 17.1721C2.60657 17.0295 2.61684 16.8783 2.67392 16.7421C2.73099 16.606 2.83164 16.4927 2.96006 16.4199L20.2934 6.41989C20.4457 6.33242 20.6263 6.30856 20.7961 6.3535C20.9658 6.39843 21.111 6.50854 21.2001 6.65989C21.2444 6.73559 21.2734 6.81929 21.2853 6.9062C21.2973 6.99312 21.292 7.08153 21.2697 7.16638C21.2474 7.25123 21.2085 7.33085 21.1554 7.40066C21.1023 7.47048 21.0359 7.52912 20.9601 7.57323L3.62673 17.5732C3.52578 17.6331 3.41079 17.6653 3.2934 17.6666Z" fill="#AC8E48"/>
<path d="M5.87305 18.3601C5.81572 18.3702 5.75706 18.3702 5.69972 18.3601C5.52928 18.3147 5.38377 18.2036 5.29505 18.0512C5.20634 17.8987 5.18165 17.7173 5.22639 17.5467L5.74639 15.6134L3.81305 15.0934C3.72512 15.0719 3.64248 15.0327 3.57019 14.9782C3.49789 14.9238 3.43744 14.8552 3.39253 14.7766C3.34761 14.698 3.31918 14.611 3.30895 14.5211C3.29873 14.4312 3.30693 14.3401 3.33305 14.2534C3.35548 14.1683 3.39455 14.0884 3.44799 14.0185C3.50143 13.9486 3.5682 13.8899 3.64443 13.8459C3.72067 13.8019 3.80486 13.7734 3.89216 13.7621C3.97946 13.7508 4.06813 13.7569 4.15305 13.7801L7.37972 14.6667L6.51305 17.8801C6.47266 18.0185 6.38845 18.1402 6.27305 18.2267C6.15766 18.3133 6.0173 18.3601 5.87305 18.3601Z" fill="#AC8E48"/>
<path d="M19.9199 10.2467C19.8625 10.256 19.8039 10.256 19.7465 10.2467L16.5332 9.3334L17.3932 6.1134C17.4105 6.02198 17.4468 5.93519 17.4997 5.85863C17.5525 5.78206 17.6209 5.71741 17.7002 5.66884C17.7796 5.62027 17.8682 5.58885 17.9605 5.5766C18.0527 5.56435 18.1465 5.57155 18.2358 5.59773C18.3251 5.62391 18.4079 5.66849 18.4789 5.72861C18.55 5.78872 18.6076 5.86304 18.6482 5.94677C18.6887 6.03051 18.7113 6.12182 18.7145 6.21481C18.7177 6.30781 18.7013 6.40043 18.6665 6.48673L18.1465 8.4134L20.0799 8.9334C20.2567 8.95639 20.4171 9.04867 20.5259 9.18994C20.6347 9.33122 20.6829 9.50992 20.6599 9.68673C20.6369 9.86354 20.5446 10.024 20.4033 10.1328C20.262 10.2415 20.0833 10.2897 19.9065 10.2667L19.9199 10.2467Z" fill="#AC8E48"/>
</svg>
