<svg width="20" height="24" viewBox="0 0 20 24" fill="none" xmlns="http://www.w3.org/2000/svg">
<path d="M2.95652 9.03571H16.6522M2.95652 9.03571L4.13043 23M2.95652 9.03571L15.4783 23M2.95652 9.03571L1 4.10714M2.95652 9.03571L5.7868 5.32238C5.97594 5.07422 6.27009 4.92857 6.58212 4.92857H13.378C13.7123 4.92857 14.0244 5.09561 14.2099 5.37373L16.6522 9.03571M16.6522 9.03571L15.4783 23M16.6522 9.03571L4.13043 23M16.6522 9.03571L19 4.10714M15.4783 23H4.13043M8.43478 3.69643C8.04348 3.14881 7.57391 1.97143 8.82609 1.64286C10.0783 1.31429 9.86957 0.410714 9.6087 0M10.7826 3.69643C10.3913 3.14881 9.92174 1.97143 11.1739 1.64286C12.4261 1.31429 12.2174 0.410714 11.9565 0" stroke="#AC8E48"/>
</svg>
