<!-- <svg width="32" height="32" viewBox="0 0 32 32" fill="none" xmlns="http://www.w3.org/2000/svg">
<circle cx="16" cy="16" r="16" fill="#AC8E48"/>
<g clip-path="url(#clip0_986_1335)">
<path d="M15.1086 10.5174C15.1943 10.4249 15.2747 10.3011 15.3076 10.1484L17.297 10.2812L16.8096 10.3929L16.8265 10.4666C16.8267 10.4676 16.8269 10.4688 16.8271 10.4702L16.8325 10.5011L16.8509 10.6079C16.8591 10.6561 16.869 10.7144 16.8803 10.7812M15.1086 10.5174C15.1205 10.5313 15.1332 10.545 15.147 10.5584C15.2739 10.6824 15.4226 10.7276 15.5354 10.7484C15.7145 10.7814 15.9961 10.7813 16.398 10.7813C16.416 10.7813 16.4343 10.7812 16.4528 10.7812H16.8803M15.1086 10.5174C15.0997 10.5269 15.0907 10.5362 15.0818 10.5451L15.0818 10.5451L15.0773 10.5495L14.9838 10.6402L14.8384 10.7812H14.6357H11.7167C10.7424 10.7812 10.0148 10.7836 9.53148 10.7886C9.41602 10.7899 9.31525 10.7912 9.22888 10.7927M15.1086 10.5174C15.0306 10.4262 14.991 10.3295 14.9766 10.2943C14.9757 10.2921 14.9749 10.2902 14.9742 10.2885L9.22888 10.7927M16.8803 10.7812H17.297V10.3701L17.3163 10.3656C17.326 10.4156 17.4516 11.1562 17.5934 12.0188C17.8737 13.7156 17.8962 13.9844 17.8028 14.4594M16.8803 10.7812C16.89 10.8383 16.9007 10.9017 16.9122 10.9705C16.9625 11.2691 17.0292 11.6693 17.1 12.0998L17.1001 12.1002C17.3847 13.8232 17.3846 13.9946 17.3123 14.3624M17.3123 14.3624C17.3123 14.3623 17.3123 14.3623 17.3123 14.3623L17.8028 14.4594M17.3123 14.3624C17.3123 14.3625 17.3122 14.3627 17.3122 14.3629L17.8028 14.4594M17.3123 14.3624C17.2316 14.7696 17.0125 15.2572 16.8105 15.5088L16.8095 15.51C16.0137 16.5073 14.9971 17.06 13.6653 17.2058M17.8028 14.4594C17.7094 14.9312 17.4613 15.4969 17.2003 15.8219C16.3175 16.9281 15.177 17.5437 13.7175 17.7031M13.7175 17.7031L13.668 17.2056C13.6671 17.2057 13.6662 17.2058 13.6653 17.2058M13.7175 17.7031L13.6632 17.2061C13.6639 17.206 13.6646 17.2059 13.6653 17.2058M13.7175 17.7031C13.5918 17.7156 13.5048 17.7469 13.4436 17.7969L13.0562 17.4684M13.6653 17.2058C13.487 17.2239 13.2924 17.2748 13.1273 17.4096L13.1252 17.4114L13.1252 17.4114L13.0562 17.4684M13.0562 17.4684C13.1149 17.5325 13.152 17.5981 13.1768 17.6511C13.1778 17.6532 13.1788 17.6553 13.1797 17.6573L13.0562 17.4684ZM13.0562 17.4684L13.0382 17.4833L12.8566 17.6333V17.8018L8.89096 14.7142C9.05372 15.193 9.25776 15.5088 9.73755 15.9713L9.73793 15.9716C10.4628 16.6719 11.2492 17.0489 12.244 17.1759L12.2441 17.1759C12.4383 17.2007 12.619 17.2261 12.7575 17.2756C12.8384 17.3044 12.9307 17.3496 13.0151 17.4272C13.0298 17.4408 13.0435 17.4545 13.0562 17.4684ZM9.22888 10.7927C9.22328 10.8275 9.21736 10.8641 9.21116 10.9025C9.16151 11.2095 9.09295 11.628 9.01716 12.0847M9.22888 10.7927L8.89094 14.7141C8.81402 14.4877 8.75 14.1076 8.75 13.8906C8.75 13.8912 8.75008 13.8902 8.7503 13.8875C8.75128 13.8756 8.75498 13.8308 8.76643 13.7374C8.77888 13.6357 8.79742 13.4998 8.82133 13.3351C8.86906 13.0065 8.93697 12.5716 9.01716 12.0847M9.22888 10.7927C9.24568 10.6884 9.25965 10.6007 9.27016 10.5339C9.27714 10.4895 9.28273 10.4533 9.28665 10.4271L9.29168 10.3924L9.29205 10.3895M9.22888 10.7927C9.134 10.7943 9.0565 10.7962 8.99598 10.7981C8.93694 10.8 8.90057 10.8019 8.88182 10.8034C8.87763 10.8037 8.87578 10.8039 8.87582 10.8039C8.87589 10.8039 8.88207 10.8033 8.89174 10.8017L8.89219 10.8016C8.89747 10.8007 8.92733 10.7958 8.9649 10.7827C8.98113 10.7771 9.03169 10.759 9.08759 10.7194C9.12337 10.694 9.26221 10.5881 9.29205 10.3895M9.01716 12.0847C9.01718 12.0846 9.0172 12.0845 9.01721 12.0844L8.52386 12.0031M9.01716 12.0847C9.01715 12.0848 9.01713 12.0849 9.01711 12.085L8.52386 12.0031M8.52386 12.0031C8.67529 11.0906 8.79772 10.3313 8.79772 10.3125C8.79772 10.2906 9.76749 10.2812 11.7167 10.2812H14.6357M8.52386 12.0031L14.6357 10.2812M14.6357 10.2812L14.7292 10.1906L14.6357 10.2812ZM9.29205 10.3895L9.29396 10.3747L9.29556 10.3593L9.2956 10.3589C9.2959 10.3557 9.29772 10.3363 9.29772 10.3125C9.29772 10.3396 9.2957 10.3652 9.29205 10.3895ZM9.53293 8.95494C9.51851 9.04621 9.50425 9.1353 9.49075 9.21875H11.765H14.6357H14.8384L14.9838 9.35984L15.0773 9.45047L15.0773 9.45044L15.0818 9.4549C15.0908 9.46385 15.0998 9.47315 15.1087 9.48278C15.1203 9.46919 15.1328 9.45571 15.1462 9.44255C15.2707 9.32021 15.4163 9.27382 15.5295 9.25222C15.7056 9.21861 15.9782 9.21867 16.3557 9.21874C16.3739 9.21875 16.3923 9.21875 16.411 9.21875H16.6244C16.6036 9.09075 16.5798 8.94619 16.5557 8.80077L16.5556 8.80013L16.5085 8.5146L13.0594 8.50625L13.059 8.50625L9.6083 8.50067L9.53293 8.95494ZM13.0763 23.5L13.968 23.4993C13.8833 23.4707 13.8063 23.4444 13.737 23.4204C13.597 23.3717 13.4835 23.3305 13.3985 23.2969C13.3565 23.2803 13.316 23.2635 13.2805 23.2469L13.2789 23.2462C13.2565 23.2357 13.1905 23.205 13.1306 23.156L13.1305 23.156L13.1272 23.1532L13.0533 23.0917C13.0056 23.1411 12.9514 23.181 12.8925 23.2144C12.8129 23.2596 12.7133 23.2995 12.6011 23.3406C12.4918 23.3806 12.3422 23.4317 12.1371 23.4995C12.4291 23.4998 12.7423 23.5 13.0761 23.5C13.0762 23.5 13.0763 23.5 13.0763 23.5ZM15.3079 9.85307C15.3179 9.89942 15.3234 9.94842 15.3234 10C15.3234 10.0516 15.3179 10.1006 15.3079 10.1469L15.4347 10.0938C15.4025 10.0188 15.4025 9.98125 15.4347 9.90625L15.3079 9.85307Z" stroke="white"/>
<path d="M20.5203 12.4419C20.5135 12.4094 20.5087 12.372 20.5087 12.3312C20.5087 12.2818 20.57 11.314 20.6318 10.3485L20.5203 12.4419ZM20.5203 12.4419L20.1388 12.5094L20.5216 12.4477L20.5203 12.4419ZM22.1807 13.4787C22.1825 13.4806 22.1843 13.4825 22.1861 13.4845L22.2741 13.4129C22.4125 13.2994 22.5953 13.2188 22.7969 13.2188C22.9839 13.2188 23.2119 13.1369 23.3881 13.0004C23.0995 13.1275 22.7393 13.0877 22.4895 12.7989L22.4895 12.7989L22.4876 12.7966C22.5083 12.8209 22.3974 12.7136 22.3428 12.5621C22.3045 12.4559 22.2881 12.3276 22.2742 12.193C22.2527 11.9857 22.2268 11.6333 22.1844 11.0212C22.145 11.6469 22.1211 12.0065 22.1004 12.2167C22.0875 12.3464 22.0718 12.4751 22.0334 12.5821C22.0084 12.6516 21.973 12.7166 21.9235 12.7762C21.8916 12.8146 21.8391 12.863 21.8562 12.8464C21.5923 13.1024 21.2341 13.1195 20.9524 12.9736C21.0979 13.0918 21.2895 13.1756 21.5258 13.2115C21.6023 13.2223 21.6741 13.2326 21.7279 13.2407C21.7546 13.2447 21.7796 13.2486 21.7994 13.252C21.8085 13.2535 21.8214 13.2558 21.8344 13.2585C21.8399 13.2596 21.8531 13.2624 21.869 13.2667C21.876 13.2686 21.8931 13.2733 21.914 13.2811C21.9182 13.2827 21.9239 13.2849 21.9307 13.2877C21.9561 13.2981 21.9754 13.3085 21.9865 13.3148C22.0119 13.3291 22.0307 13.3426 22.0384 13.3482C22.0555 13.3608 22.0688 13.3722 22.0741 13.3768C22.0867 13.3877 22.0987 13.3988 22.1064 13.4061C22.1226 13.4213 22.1426 13.4407 22.1603 13.4579L22.1623 13.4598L22.1718 13.469L22.1807 13.4787ZM23.1833 8.50189C23.1834 8.50194 23.1854 8.50182 23.189 8.50141C23.185 8.50165 23.1832 8.50185 23.1833 8.50189ZM21.0786 12.4962L21.1022 12.4719L21.0786 12.4962Z" stroke="white"/>
<mask id="path-4-inside-1_986_1335" fill="white">
<path d="M21.8779 15.7188V16H22.184H22.4901V15.7188V15.4375H22.184H21.8779V15.7188Z"/>
</mask>
<path d="M21.8779 16V17H20.8779V16H21.8779ZM22.4901 16H23.4901V17H22.4901V16ZM22.4901 15.4375V14.4375H23.4901V15.4375H22.4901ZM21.8779 15.4375H20.8779V14.4375H21.8779V15.4375ZM22.8779 15.7188V16H20.8779V15.7188H22.8779ZM21.8779 15H22.184V17H21.8779V15ZM22.184 15H22.4901V17H22.184V15ZM21.4901 16V15.7188H23.4901V16H21.4901ZM21.4901 15.7188V15.4375H23.4901V15.7188H21.4901ZM22.4901 16.4375H22.184V14.4375H22.4901V16.4375ZM22.184 16.4375H21.8779V14.4375H22.184V16.4375ZM22.8779 15.4375V15.7188H20.8779V15.4375H22.8779Z" fill="white" mask="url(#path-4-inside-1_986_1335)"/>
<path d="M22.3559 16.6974C22.3559 16.6972 22.3556 16.699 22.3548 16.7034C22.3556 16.6997 22.3559 16.6975 22.3559 16.6974ZM22.3207 19.3433C22.2719 18.9047 22.2264 18.4947 22.1864 18.1337C22.1248 18.6849 22.0537 19.3356 21.9837 19.9863C21.8959 20.8018 21.8101 21.6164 21.7472 22.2343C21.7157 22.5435 21.6901 22.8023 21.6729 22.9871C21.6643 23.0798 21.658 23.1519 21.6541 23.2017C21.6532 23.2134 21.6524 23.2232 21.6519 23.2313C21.6559 23.252 21.6611 23.2646 21.6664 23.2748C21.6754 23.2923 21.6956 23.3237 21.7478 23.3765L21.7479 23.3765L21.7531 23.382C21.7996 23.4304 21.8228 23.4501 21.8352 23.4591C21.8413 23.4636 21.8425 23.4639 21.844 23.4643C21.8443 23.4644 21.8445 23.4645 21.8448 23.4645C21.8516 23.4667 21.8745 23.473 21.9319 23.4776C21.9906 23.4824 22.0692 23.4844 22.1849 23.4844C22.287 23.4844 22.3569 23.4841 22.4103 23.4827C22.4565 23.4815 22.4789 23.4795 22.4892 23.4782L22.4971 23.4745C22.5066 23.4697 22.5188 23.4634 22.5373 23.4536C22.6772 23.3769 22.732 23.272 22.732 23.1469C22.732 23.1515 22.7309 23.1402 22.7281 23.1093C22.7245 23.0696 22.7179 22.9975 22.7067 22.8853C22.689 22.7074 22.6632 22.4594 22.6313 22.1592C22.5674 21.5589 22.4789 20.7521 22.3807 19.8843L22.3806 19.8833C22.3602 19.6996 22.3402 19.5192 22.3207 19.3433ZM21.65 23.2656C21.6501 23.2654 21.6503 23.2619 21.6503 23.2561C21.65 23.263 21.65 23.2659 21.65 23.2656ZM22.0047 17.0688C22.0025 17.069 22.0015 17.0692 22.0015 17.0692L22.0047 17.0688Z" stroke="white"/>
</g>
<defs>
<clipPath id="clip0_986_1335">
<rect width="16" height="16" fill="white" transform="translate(8 8)"/>
</clipPath>
</defs>
</svg> -->


<svg width="32" height="32" viewBox="0 0 32 32" fill="none" xmlns="http://www.w3.org/2000/svg">
<circle cx="16" cy="16" r="16" fill="#AC8E48"/>
<g clip-path="url(#clip0_1043_901)">
<path d="M9.01716 12.0847C9.09295 11.628 9.16151 11.2095 9.21116 10.9025C9.21736 10.8641 9.22328 10.8275 9.22888 10.7927C9.31525 10.7912 9.41602 10.7899 9.53148 10.7886C10.0148 10.7836 10.7424 10.7812 11.7167 10.7812H14.6357H14.8384L14.9838 10.6402L15.0773 10.5495L15.0818 10.5451L15.0818 10.5451C15.0907 10.5362 15.0997 10.5269 15.1086 10.5174C15.1205 10.5313 15.1332 10.545 15.147 10.5584C15.2739 10.6824 15.4226 10.7276 15.5354 10.7484C15.7145 10.7814 15.9961 10.7813 16.398 10.7813C16.416 10.7813 16.4343 10.7812 16.4528 10.7812H16.8803C16.89 10.8383 16.9007 10.9017 16.9122 10.9705C16.9625 11.2691 17.0292 11.6693 17.1 12.0998L17.1001 12.1002C17.3847 13.8234 17.3846 13.9946 17.3123 14.3625C17.2316 14.7697 17.0125 15.2572 16.8105 15.5088L16.8095 15.51C16.0137 16.5073 14.9971 17.06 13.6653 17.2058C13.487 17.2239 13.2924 17.2748 13.1273 17.4096L13.1252 17.4114L13.1252 17.4114L13.0562 17.4684C13.0435 17.4545 13.0298 17.4407 13.0151 17.4272C12.9307 17.3496 12.8384 17.3044 12.7575 17.2756C12.619 17.2261 12.4383 17.2007 12.2441 17.1759L12.244 17.1759C11.2492 17.0489 10.4628 16.6719 9.73793 15.9716L9.73755 15.9713C9.25776 15.5088 9.05372 15.193 8.89096 14.7141L9.01716 12.0847ZM9.01716 12.0847C8.93697 12.5716 8.86906 13.0064 8.82133 13.3351C8.79742 13.4998 8.77888 13.6357 8.76643 13.7374C8.75498 13.8308 8.75128 13.8756 8.7503 13.8875C8.75008 13.8902 8.75 13.8912 8.75 13.8906C8.75 14.1076 8.81402 14.4877 8.89094 14.7141L9.01716 12.0847ZM9.53293 8.95493C9.51851 9.04621 9.50425 9.1353 9.49075 9.21875H11.765H14.6357H14.8384L14.9838 9.35984L15.0773 9.45046L15.0773 9.45044L15.0818 9.4549C15.0908 9.46385 15.0998 9.47315 15.1087 9.48278C15.1203 9.46919 15.1328 9.45571 15.1462 9.44255C15.2707 9.3202 15.4163 9.27382 15.5295 9.25222C15.7056 9.21861 15.9782 9.21867 16.3557 9.21874C16.3739 9.21875 16.3923 9.21875 16.411 9.21875H16.6244C16.6036 9.09075 16.5798 8.9462 16.5557 8.80077L16.5556 8.80013L16.5085 8.5146L13.0594 8.50625L13.059 8.50625L9.6083 8.50067L9.53293 8.95493ZM13.1272 23.1532L13.0533 23.0917C13.0056 23.1411 12.9514 23.181 12.8925 23.2144C12.8129 23.2596 12.7133 23.2995 12.6011 23.3406C12.4918 23.3806 12.3422 23.4317 12.1371 23.4995C12.4291 23.4998 12.7423 23.5 13.0761 23.5C13.0762 23.5 13.0763 23.5 13.0763 23.5L13.968 23.4993C13.8833 23.4707 13.8063 23.4444 13.737 23.4204C13.597 23.3717 13.4835 23.3305 13.3985 23.2969C13.3565 23.2803 13.316 23.2635 13.2805 23.2469L13.2789 23.2462C13.2565 23.2357 13.1905 23.205 13.1306 23.156L13.1305 23.156L13.1272 23.1532ZM15.3079 9.85307C15.3179 9.89942 15.3234 9.94842 15.3234 10C15.3234 10.0516 15.3179 10.1006 15.3079 10.1469L15.4347 10.0938L15.3079 9.85307ZM9.29396 10.3747L9.29205 10.3895C9.2957 10.3652 9.29772 10.3396 9.29772 10.3125C9.29772 10.3363 9.2959 10.3557 9.2956 10.3589L9.29556 10.3593L9.29396 10.3747Z" stroke="white"/>
<path d="M19.5799 12.4419C19.5731 12.4094 19.5683 12.372 19.5683 12.3312C19.5683 12.2818 19.6296 11.314 19.6913 10.3485L19.5799 12.4419ZM19.5799 12.4419L19.1984 12.5094L19.5812 12.4477L19.5799 12.4419ZM21.2403 13.4787C21.2421 13.4806 21.2439 13.4825 21.2457 13.4845L21.3337 13.4129C21.472 13.2994 21.6549 13.2188 21.8564 13.2188C22.0435 13.2188 22.2714 13.1369 22.4476 13.0004C22.1591 13.1275 21.7989 13.0877 21.5491 12.7989L21.5491 12.7989L21.5472 12.7966C21.5679 12.8209 21.457 12.7136 21.4024 12.5621C21.3641 12.4559 21.3477 12.3276 21.3337 12.193C21.3123 11.9857 21.2864 11.6333 21.244 11.0212C21.2046 11.6469 21.1807 12.0065 21.1599 12.2167C21.1471 12.3464 21.1314 12.4751 21.0929 12.5821C21.0679 12.6516 21.0326 12.7166 20.9831 12.7762C20.9512 12.8146 20.8987 12.863 20.9158 12.8464C20.6519 13.1024 20.2937 13.1195 20.012 12.9736C20.1574 13.0918 20.3491 13.1756 20.5853 13.2115C20.6618 13.2223 20.7337 13.2326 20.7874 13.2407C20.8141 13.2447 20.8392 13.2486 20.859 13.252C20.8681 13.2535 20.881 13.2558 20.894 13.2585C20.8995 13.2596 20.9127 13.2624 20.9285 13.2667C20.9356 13.2686 20.9527 13.2733 20.9736 13.2811C20.9778 13.2827 20.9835 13.2849 20.9903 13.2877C21.0157 13.2981 21.035 13.3085 21.0461 13.3148C21.0715 13.3291 21.0902 13.3426 21.0979 13.3482C21.1151 13.3608 21.1284 13.3722 21.1337 13.3768C21.1463 13.3877 21.1583 13.3988 21.166 13.4061C21.1821 13.4213 21.2022 13.4407 21.2199 13.4579L21.2219 13.4598L21.2313 13.469L21.2403 13.4787ZM22.2428 8.50189C22.2429 8.50194 22.2449 8.50182 22.2486 8.50141C22.2446 8.50165 22.2428 8.50185 22.2428 8.50189ZM20.1382 12.4962L20.1617 12.4719L20.1382 12.4962Z" stroke="white"/>
<mask id="path-4-inside-1_1043_901" fill="white">
<path d="M20.9385 15.7915V16.0728H21.2446H21.5506V15.7915V15.5103H21.2446H20.9385V15.7915Z"/>
</mask>
<path d="M20.9385 16.0728V17.0728H19.9385V16.0728H20.9385ZM21.5506 16.0728H22.5506V17.0728H21.5506V16.0728ZM21.5506 15.5103V14.5103H22.5506V15.5103H21.5506ZM20.9385 15.5103H19.9385V14.5103H20.9385V15.5103ZM21.9385 15.7915V16.0728H19.9385V15.7915H21.9385ZM20.9385 15.0728H21.2446V17.0728H20.9385V15.0728ZM21.2446 15.0728H21.5506V17.0728H21.2446V15.0728ZM20.5506 16.0728V15.7915H22.5506V16.0728H20.5506ZM20.5506 15.7915V15.5103H22.5506V15.7915H20.5506ZM21.5506 16.5103H21.2446V14.5103H21.5506V16.5103ZM21.2446 16.5103H20.9385V14.5103H21.2446V16.5103ZM21.9385 15.5103V15.7915H19.9385V15.5103H21.9385Z" fill="white" mask="url(#path-4-inside-1_1043_901)"/>
<path d="M21.4155 16.8744C21.4155 16.8742 21.4151 16.876 21.4144 16.8804C21.4151 16.8767 21.4155 16.8745 21.4155 16.8744ZM21.3802 19.5205C21.3315 19.0818 21.286 18.6717 21.2459 18.3107C21.1844 18.8619 21.1133 19.5126 21.0432 20.1633C20.9555 20.9788 20.8696 21.7934 20.8067 22.4113C20.7753 22.7205 20.7497 22.9793 20.7325 23.1641C20.7239 23.2568 20.7175 23.3289 20.7136 23.3787C20.7127 23.3904 20.712 23.4002 20.7114 23.4083C20.7154 23.429 20.7207 23.4416 20.7259 23.4518C20.735 23.4693 20.7551 23.5007 20.8074 23.5536L20.8074 23.5535L20.8127 23.559C20.8591 23.6074 20.8824 23.6271 20.8947 23.6361C20.9009 23.6406 20.9021 23.6409 20.9036 23.6413C20.9038 23.6414 20.9041 23.6415 20.9043 23.6416C20.9111 23.6437 20.934 23.65 20.9915 23.6546C21.0501 23.6594 21.1288 23.6614 21.2444 23.6614C21.3465 23.6614 21.4165 23.6611 21.4698 23.6597C21.5161 23.6585 21.5385 23.6565 21.5488 23.6552L21.5566 23.6515C21.5662 23.6468 21.5783 23.6404 21.5969 23.6306C21.7368 23.5539 21.7915 23.449 21.7915 23.3239C21.7915 23.3285 21.7905 23.3172 21.7877 23.2863C21.784 23.2466 21.7774 23.1745 21.7663 23.0623C21.7486 22.8844 21.7228 22.6365 21.6909 22.3362C21.627 21.7359 21.5385 20.9291 21.4403 20.0613L21.4402 20.0603C21.4198 19.8767 21.3998 19.6963 21.3802 19.5205ZM20.7096 23.4426C20.7097 23.4424 20.7099 23.4389 20.7099 23.4331C20.7096 23.44 20.7095 23.4429 20.7096 23.4426ZM21.0643 17.2458C21.0621 17.246 21.061 17.2462 21.0611 17.2462L21.0643 17.2458Z" stroke="white"/>
</g>
<defs>
<clipPath id="clip0_1043_901">
<rect width="16" height="16" fill="white" transform="translate(8 8)"/>
</clipPath>
</defs>
</svg>
