<svg width="24" height="22" viewBox="0 0 24 22" fill="none" xmlns="http://www.w3.org/2000/svg">
<path d="M2.53153 0.340582C2.36278 0.373394 2.02528 0.504644 1.78153 0.621832C1.42059 0.799957 1.2659 0.912457 0.956527 1.22652C0.637777 1.54058 0.534652 1.6859 0.361214 2.05152C-0.0231606 2.84371 0.000276908 2.23902 0.000276908 11C0.000276908 19.7609 -0.0231606 19.1562 0.361214 19.9484C0.534652 20.314 0.637777 20.4593 0.956527 20.7734C1.2659 21.0875 1.42059 21.2 1.78153 21.3781C2.55965 21.7578 1.78153 21.7343 12.0003 21.7343C22.219 21.7343 21.4409 21.7578 22.219 21.3781C22.58 21.2 22.7346 21.0875 23.0393 20.7781C23.3487 20.4687 23.4612 20.314 23.6393 19.9531C24.0237 19.1609 24.005 19.6109 23.9909 12.2656L23.9768 5.7734L23.8503 5.3984C23.5315 4.45621 22.8518 3.72496 21.9612 3.36402L21.6331 3.23277L21.6003 2.98902C21.4503 1.95777 20.7378 1.02027 19.7581 0.570271C19.0643 0.246832 19.6081 0.265583 10.7956 0.270269C4.18153 0.270269 2.78465 0.284332 2.53153 0.340582ZM19.055 1.90152C19.2472 1.98121 19.4159 2.09839 19.594 2.27652C19.8378 2.52027 20.0628 2.89527 20.0628 3.05465C20.0628 3.11558 19.0409 3.12496 11.3581 3.13433L2.64871 3.1484L2.32059 3.2609C2.14246 3.32183 1.89403 3.42027 1.77215 3.48121C1.65028 3.54215 1.53778 3.59371 1.51903 3.59371C1.50028 3.59371 1.50028 3.4859 1.51903 3.35465C1.61746 2.60465 2.13778 1.99996 2.83153 1.83121C3.01903 1.78433 4.78153 1.77496 10.9222 1.77965L18.7737 1.78902L19.055 1.90152ZM21.3987 4.7609C21.7831 4.91558 22.2097 5.34215 22.3643 5.72652C22.4722 6.00308 22.4768 6.0359 22.4768 7.50777V9.00777L19.7112 9.03121L16.9456 9.05465L16.5518 9.19059C16.0128 9.38277 15.3847 9.80933 15.0331 10.2265C14.6956 10.6296 14.3675 11.2859 14.269 11.75C14.1565 12.275 14.1987 13.0671 14.3628 13.5546C14.7472 14.6937 15.6331 15.5187 16.8284 15.8562C17.1003 15.9312 17.405 15.9406 19.819 15.9546L22.505 15.9734L22.4909 17.4125C22.4722 19.0718 22.4487 19.1796 22.0315 19.639C21.7597 19.939 21.4503 20.1125 21.0706 20.1875C20.8643 20.225 18.3659 20.2343 11.8362 20.225L2.88309 20.2109L2.60184 20.0984C2.21746 19.9437 1.7909 19.5171 1.63621 19.1328L1.52371 18.8515V12.4296V6.00777L1.63621 5.72652C1.84246 5.22027 2.40496 4.76558 2.93934 4.67183C3.0659 4.65308 7.20496 4.63902 12.1409 4.64371L21.1175 4.6484L21.3987 4.7609ZM22.5003 12.4765V14.4218H19.9315C17.719 14.4218 17.3253 14.4125 17.105 14.3468C16.2987 14.1125 15.7081 13.3203 15.7034 12.4671C15.7034 12.1812 15.83 11.7406 15.9987 11.4546C16.2284 11.0656 16.744 10.6859 17.1893 10.5828C17.2878 10.5593 18.5206 10.5406 19.9362 10.5359L22.5003 10.5312V12.4765Z" fill="#AC8E48"/>
<path d="M17.5786 11.8531C17.0864 12.1015 17.0114 12.7671 17.4333 13.1234C17.9489 13.5593 18.7036 13.2218 18.713 12.5562C18.7177 11.9281 18.1364 11.5718 17.5786 11.8531Z" fill="#AC8E48"/>
</svg>
